<svg width="48" height="48" viewBox="0 0 48 48" fill="none" xmlns="http://www.w3.org/2000/svg">
<rect width="48" height="48" rx="8" fill="url(#paint0_linear_324_2)"/>
<path d="M19.1114 15.5596C19.4669 15.6245 19.8077 15.3888 19.8726 15.0333C19.9374 14.6778 19.7018 14.3369 19.3462 14.2721L19.1114 15.5596ZM10.9476 23.3514C11.1272 23.6651 11.527 23.7738 11.8406 23.5942C12.1543 23.4147 12.263 23.0149 12.0834 22.7012L10.9476 23.3514ZM14.1302 25.4636C13.8871 25.1961 13.4733 25.1763 13.2058 25.4193C12.9383 25.6623 12.9185 26.0762 13.1615 26.3437L14.1302 25.4636ZM35.6617 33.7412C35.9602 33.5374 36.0369 33.1302 35.8331 32.8318C35.6293 32.5333 35.2221 32.4566 34.9237 32.6604L35.6617 33.7412ZM19.3462 14.2721C17.3212 13.9027 15.4357 13.8851 13.8685 14.2635C12.2984 14.6427 11.0003 15.4341 10.2629 16.7133L11.3968 17.3669C11.9037 16.4874 12.8401 15.8583 14.1757 15.5357C15.5143 15.2125 17.2062 15.2121 19.1114 15.5596L19.3462 14.2721ZM10.2629 16.7133C9.16762 18.6134 9.61663 21.0262 10.9476 23.3514L12.0834 22.7012C10.8453 20.5383 10.6457 18.6698 11.3968 17.3669L10.2629 16.7133ZM13.1615 26.3437C14.8372 28.1881 17.0466 29.9678 19.6394 31.4671L20.2945 30.3341C17.8072 28.8958 15.7066 27.1987 14.1302 25.4636L13.1615 26.3437ZM19.6394 31.4671C22.7281 33.2532 25.8918 34.3699 28.687 34.7757C31.4586 35.1782 33.9726 34.8947 35.6617 33.7412L34.9237 32.6604C33.6277 33.5455 31.5063 33.8626 28.875 33.4806C26.2673 33.102 23.2607 32.0493 20.2945 30.3341L19.6394 31.4671ZM38.7294 32.0662C38.7294 30.8033 37.7068 29.7777 36.4435 29.7777V31.0865C36.9823 31.0865 37.4207 31.5242 37.4207 32.0662H38.7294ZM36.4435 29.7777C35.18 29.7777 34.1576 30.8033 34.1576 32.0662H35.4663C35.4663 31.5242 35.9048 31.0865 36.4435 31.0865V29.7777ZM34.1576 32.0662C34.1576 33.3292 35.18 34.3547 36.4435 34.3547V33.046C35.9048 33.046 35.4663 32.6083 35.4663 32.0662H34.1576ZM36.4435 34.3547C37.7068 34.3547 38.7294 33.3292 38.7294 32.0662H37.4207C37.4207 32.6083 36.9823 33.046 36.4435 33.046V34.3547Z" fill="url(#paint1_linear_324_2)"/>
<path d="M33.6865 24.9679C33.4532 25.2439 33.4878 25.6567 33.7639 25.89C34.0399 26.1233 34.4528 26.0887 34.686 25.8127L33.6865 24.9679ZM31.1488 14.0104C30.7875 14.0057 30.4907 14.2948 30.486 14.6562C30.4813 15.0176 30.7704 15.3143 31.1318 15.319L31.1488 14.0104ZM27.6711 15.6968C28.0244 15.621 28.2494 15.2731 28.1736 14.9197C28.0978 14.5664 27.7498 14.3414 27.3965 14.4172L27.6711 15.6968ZM9.71513 30.611C9.76752 30.9686 10.0999 31.216 10.4575 31.1636C10.8151 31.1112 11.0625 30.7789 11.0101 30.4213L9.71513 30.611ZM34.686 25.8127C36.0119 24.2439 36.9648 22.6212 37.4181 21.0765C37.8722 19.529 37.8355 18.0116 37.0997 16.7353L35.9659 17.3889C36.472 18.2667 36.5486 19.3911 36.1622 20.708C35.775 22.0277 34.9338 23.492 33.6865 24.9679L34.686 25.8127ZM37.0997 16.7353C36.0221 14.8657 33.7668 14.0445 31.1488 14.0104L31.1318 15.319C33.5576 15.3506 35.2275 16.1078 35.9659 17.3889L37.0997 16.7353ZM27.3965 14.4172C24.9429 14.9438 22.2714 15.976 19.652 17.4907L20.3072 18.6237C22.8202 17.1705 25.3641 16.1919 27.6711 15.6968L27.3965 14.4172ZM19.652 17.4907C16.4725 19.3293 13.866 21.5918 12.1145 23.8811C10.3798 26.1487 9.41183 28.5413 9.71513 30.611L11.0101 30.4213C10.7821 28.8653 11.5058 26.8307 13.154 24.6764C14.7854 22.5439 17.2531 20.3897 20.3072 18.6237L19.652 17.4907Z" fill="url(#paint2_linear_324_2)"/>
<path d="M18.2705 32.9104C18.1488 32.5701 17.7743 32.3928 17.434 32.5145C17.0937 32.6362 16.9165 33.0107 17.0382 33.351L18.2705 32.9104ZM28.9881 36.2536C29.1741 35.9437 29.0736 35.5417 28.7638 35.3557C28.4539 35.1697 28.0519 35.2701 27.866 35.58L28.9881 36.2536ZM29.3541 32.1651C29.2463 32.5101 29.4386 32.8771 29.7836 32.9849C30.1285 33.0926 30.4955 32.9004 30.6033 32.5554L29.3541 32.1651ZM25.5681 9.3894C25.2379 9.24253 24.8511 9.39118 24.7043 9.72138C24.5574 10.0516 24.706 10.4384 25.0363 10.5852L25.5681 9.3894ZM17.0382 33.351C17.7313 35.2896 18.6584 36.9315 19.7686 38.1001C20.8807 39.2704 22.2133 40 23.6877 40V38.6913C22.6752 38.6913 21.6638 38.1947 20.7174 37.1985C19.7689 36.2003 18.9228 34.7347 18.2705 32.9104L17.0382 33.351ZM23.6877 40C25.8274 40 27.6534 38.4771 28.9881 36.2536L27.866 35.58C26.6304 37.6384 25.1523 38.6913 23.6877 38.6913V40ZM30.6033 32.5554C31.3378 30.2045 31.7582 27.4404 31.7582 24.4899H30.4494C30.4494 27.3206 30.0456 29.952 29.3541 32.1651L30.6033 32.5554ZM31.7582 24.4899C31.7582 20.8716 31.1259 17.5298 30.0542 14.8862C28.9922 12.2663 27.454 10.2281 25.5681 9.3894L25.0363 10.5852C26.4698 11.2227 27.8324 12.889 28.8413 15.3779C29.8406 17.843 30.4494 21.0144 30.4494 24.4899H31.7582Z" fill="url(#paint3_linear_324_2)"/>
<path d="M18.2705 32.9104C18.1488 32.5701 17.7743 32.3928 17.434 32.5145C17.0937 32.6362 16.9165 33.0107 17.0382 33.351L18.2705 32.9104ZM28.9881 36.2536C29.1741 35.9437 29.0736 35.5417 28.7638 35.3557C28.4539 35.1697 28.0519 35.2701 27.866 35.58L28.9881 36.2536ZM29.3541 32.1651C29.2463 32.5101 29.4386 32.8771 29.7836 32.9849C30.1285 33.0926 30.4955 32.9004 30.6033 32.5554L29.3541 32.1651ZM25.5681 9.3894C25.2379 9.24253 24.8511 9.39118 24.7043 9.72138C24.5574 10.0516 24.706 10.4384 25.0363 10.5852L25.5681 9.3894ZM17.0382 33.351C17.7313 35.2896 18.6584 36.9315 19.7686 38.1001C20.8807 39.2704 22.2133 40 23.6877 40V38.6913C22.6752 38.6913 21.6638 38.1947 20.7174 37.1985C19.7689 36.2003 18.9228 34.7347 18.2705 32.9104L17.0382 33.351ZM23.6877 40C25.8274 40 27.6534 38.4771 28.9881 36.2536L27.866 35.58C26.6304 37.6384 25.1523 38.6913 23.6877 38.6913V40ZM30.6033 32.5554C31.3378 30.2045 31.7582 27.4404 31.7582 24.4899H30.4494C30.4494 27.3206 30.0456 29.952 29.3541 32.1651L30.6033 32.5554ZM31.7582 24.4899C31.7582 20.8716 31.1259 17.5298 30.0542 14.8862C28.9922 12.2663 27.454 10.2281 25.5681 9.3894L25.0363 10.5852C26.4698 11.2227 27.8324 12.889 28.8413 15.3779C29.8406 17.843 30.4494 21.0144 30.4494 24.4899H31.7582Z" fill="url(#paint4_linear_324_2)"/>
<path fill-rule="evenodd" clip-rule="evenodd" d="M38.075 32.0662C38.075 31.1637 37.3447 30.4321 36.4434 30.4321C35.5424 30.4321 34.8119 31.1637 34.8119 32.0662C34.8119 32.9687 35.5424 33.7003 36.4434 33.7003C37.3447 33.7003 38.075 32.9687 38.075 32.0662Z" stroke="url(#paint5_linear_324_2)" stroke-width="1.30875" stroke-linecap="round"/>
<path fill-rule="evenodd" clip-rule="evenodd" d="M10.9021 33.7003C11.8032 33.7003 12.5337 32.9687 12.5337 32.0662C12.5337 31.1637 11.8032 30.4321 10.9021 30.4321C10.0011 30.4321 9.2706 31.1637 9.2706 32.0662C9.2706 32.9687 10.0011 33.7003 10.9021 33.7003Z" stroke="url(#paint6_linear_324_2)" stroke-width="1.30875" stroke-linecap="round"/>
<path d="M23.6877 11.2682C24.5888 11.2682 25.3192 10.5366 25.3192 9.63412C25.3192 8.73162 24.5888 8 23.6877 8C22.7866 8 22.0561 8.73162 22.0561 9.63412C22.0561 10.5366 22.7866 11.2682 23.6877 11.2682Z" stroke="url(#paint7_linear_324_2)" stroke-width="1.30875" stroke-linecap="round"/>
<path d="M22.7178 24.6999C22.8341 25.2376 23.3622 25.5776 23.8968 25.462C24.4322 25.3459 24.7733 24.8173 24.6575 24.2798C24.5412 23.742 24.0131 23.402 23.4785 23.5176L22.7178 24.6999ZM22.7178 24.6999C22.6022 24.1622 22.9431 23.6337 23.4783 23.5176L22.7178 24.6999Z" stroke="url(#paint8_linear_324_2)"/>
<defs>
<linearGradient id="paint0_linear_324_2" x1="-0.5" y1="-1.01281e-07" x2="45.5" y2="47.5" gradientUnits="userSpaceOnUse">
<stop stop-color="#33DDFF"/>
<stop offset="1" stop-color="#A2ECFB"/>
</linearGradient>
<linearGradient id="paint1_linear_324_2" x1="24.1881" y1="13.9873" x2="24.1881" y2="34.9484" gradientUnits="userSpaceOnUse">
<stop stop-color="white"/>
<stop offset="1" stop-color="white" stop-opacity="0.63"/>
</linearGradient>
<linearGradient id="paint2_linear_324_2" x1="23.6876" y1="14.0103" x2="23.6876" y2="31.1706" gradientUnits="userSpaceOnUse">
<stop stop-color="white"/>
<stop offset="1" stop-color="white" stop-opacity="0.63"/>
</linearGradient>
<linearGradient id="paint3_linear_324_2" x1="24.379" y1="9.33276" x2="24.379" y2="40" gradientUnits="userSpaceOnUse">
<stop stop-color="white"/>
<stop offset="1" stop-color="white" stop-opacity="0.63"/>
</linearGradient>
<linearGradient id="paint4_linear_324_2" x1="24.379" y1="9.33276" x2="24.379" y2="40" gradientUnits="userSpaceOnUse">
<stop stop-color="white"/>
<stop offset="1" stop-color="white" stop-opacity="0.63"/>
</linearGradient>
<linearGradient id="paint5_linear_324_2" x1="36.4435" y1="30.4321" x2="36.4435" y2="33.7003" gradientUnits="userSpaceOnUse">
<stop stop-color="white"/>
<stop offset="1" stop-color="white" stop-opacity="0.63"/>
</linearGradient>
<linearGradient id="paint6_linear_324_2" x1="10.9022" y1="30.4321" x2="10.9022" y2="33.7003" gradientUnits="userSpaceOnUse">
<stop stop-color="white"/>
<stop offset="1" stop-color="white" stop-opacity="0.63"/>
</linearGradient>
<linearGradient id="paint7_linear_324_2" x1="23.6877" y1="8" x2="23.6877" y2="11.2682" gradientUnits="userSpaceOnUse">
<stop stop-color="white"/>
<stop offset="1" stop-color="white" stop-opacity="0.63"/>
</linearGradient>
<linearGradient id="paint8_linear_324_2" x1="23.6877" y1="22.9949" x2="23.6877" y2="25.9847" gradientUnits="userSpaceOnUse">
<stop stop-color="white"/>
<stop offset="1" stop-color="white" stop-opacity="0.63"/>
</linearGradient>
</defs>
</svg>
