<svg width="48" height="48" viewBox="0 0 48 48" fill="none" xmlns="http://www.w3.org/2000/svg">
<rect width="48" height="48" rx="8" fill="url(#paint0_radial_204_20)"/>
<path d="M16.4096 28.4169H11.1672C11.8614 30.798 13.1494 32.9323 15.0352 34.8181C18.0414 37.825 21.6564 39.3259 25.8837 39.3259C26.7288 39.3259 27.5475 39.263 28.3427 39.1431C31.5269 38.6625 34.3146 37.2229 36.7032 34.8181C38.6011 32.9329 39.8983 30.798 40.5977 28.4169H38.4703H35.3594H16.4096Z" fill="url(#paint1_radial_204_20)"/>
<path d="M13.5188 21.2966H10.7802C10.6801 21.8984 10.6118 22.5127 10.5808 23.1426H13.8357H15.4685H39.0363H41.1876C41.1563 22.5127 41.088 21.8984 40.9869 21.2966" fill="url(#paint2_radial_204_20)"/>
<path d="M10.5808 24.8568C10.6118 25.487 10.6797 26.1013 10.7802 26.7028H13.6275H15.7856H38.8441H40.9875C41.0883 26.1013 41.1572 25.487 41.1885 24.8568" fill="url(#paint3_radial_204_20)"/>
<path d="M40.5983 19.5821C39.8995 17.1945 38.6021 15.0505 36.7032 13.1513C34.3209 10.7693 31.5409 9.33969 28.3671 8.85878C27.5644 8.73699 26.7375 8.67313 25.8837 8.67313C21.6564 8.67313 18.0411 10.1663 15.0351 13.1513C13.1488 15.0505 11.8601 17.1945 11.1663 19.5821" fill="url(#paint4_radial_204_20)"/>
<path d="M9.67066 24.0002C9.67066 15.9149 15.743 9.19694 23.6426 8.01534C23.4466 8.00813 23.2497 8 23.0518 8C14.187 8 7 15.1638 7 24.0002C7 32.8368 14.1867 40 23.0518 40C23.2503 40 23.4473 39.9928 23.6439 39.9853C15.743 38.8037 9.67066 32.0857 9.67066 24.0002Z" fill="url(#paint5_radial_204_20)"/>
<defs>
<radialGradient id="paint0_radial_204_20" cx="0" cy="0" r="1" gradientUnits="userSpaceOnUse" gradientTransform="translate(-3.32172e-07 2.5) rotate(45.9602) scale(63.2949)">
<stop stop-color="#6655AA"/>
<stop offset="0.703125" stop-color="#2C2255"/>
<stop offset="1" stop-color="#1C104D"/>
</radialGradient>
<radialGradient id="paint1_radial_204_20" cx="0" cy="0" r="1" gradientUnits="userSpaceOnUse" gradientTransform="translate(40.3703 28.4169) rotate(159.563) scale(27.8255 16.1946)">
<stop offset="0.54" stop-color="white"/>
<stop offset="1" stop-color="white" stop-opacity="0.71"/>
</radialGradient>
<radialGradient id="paint2_radial_204_20" cx="0" cy="0" r="1" gradientUnits="userSpaceOnUse" gradientTransform="translate(40.9511 21.2966) rotate(176.53) scale(27.1661 2.9191)">
<stop offset="0.54" stop-color="white"/>
<stop offset="1" stop-color="white" stop-opacity="0.71"/>
</radialGradient>
<radialGradient id="paint3_radial_204_20" cx="0" cy="0" r="1" gradientUnits="userSpaceOnUse" gradientTransform="translate(40.952 24.8568) rotate(176.53) scale(27.167 2.9191)">
<stop offset="0.54" stop-color="white"/>
<stop offset="1" stop-color="white" stop-opacity="0.71"/>
</radialGradient>
<radialGradient id="paint4_radial_204_20" cx="0" cy="0" r="1" gradientUnits="userSpaceOnUse" gradientTransform="translate(40.3709 8.67313) rotate(159.564) scale(27.8268 16.1947)">
<stop offset="0.54" stop-color="white"/>
<stop offset="1" stop-color="white" stop-opacity="0.71"/>
</radialGradient>
<radialGradient id="paint5_radial_204_20" cx="0" cy="0" r="1" gradientUnits="userSpaceOnUse" gradientTransform="translate(23.5153 8) rotate(117.357) scale(32.0888 23.2961)">
<stop offset="0.54" stop-color="white"/>
<stop offset="1" stop-color="white" stop-opacity="0.71"/>
</radialGradient>
</defs>
</svg>
