<svg width="48" height="48" viewBox="0 0 48 48" fill="none" xmlns="http://www.w3.org/2000/svg">
<rect width="47.4588" height="48" rx="8" fill="url(#paint0_linear_324_2)"/>
<path d="M18.8407 15.5596C19.1963 15.6245 19.5371 15.3888 19.6019 15.0333C19.6668 14.6778 19.4311 14.3369 19.0756 14.2721L18.8407 15.5596ZM10.677 23.3514C10.8566 23.6651 11.2563 23.7738 11.57 23.5942C11.8837 23.4147 11.9924 23.0149 11.8128 22.7012L10.677 23.3514ZM13.8595 25.4636C13.6165 25.1961 13.2026 25.1763 12.9351 25.4193C12.6677 25.6623 12.6478 26.0762 12.8909 26.3437L13.8595 25.4636ZM35.3911 33.7412C35.6896 33.5374 35.7663 33.1302 35.5624 32.8318C35.3586 32.5333 34.9515 32.4566 34.653 32.6604L35.3911 33.7412ZM19.0756 14.2721C17.0506 13.9027 15.1651 13.8851 13.5979 14.2635C12.0277 14.6427 10.7296 15.4341 9.9923 16.7133L11.1262 17.3669C11.6331 16.4874 12.5694 15.8583 13.9051 15.5357C15.2437 15.2125 16.9355 15.2121 18.8407 15.5596L19.0756 14.2721ZM9.9923 16.7133C8.89699 18.6134 9.346 21.0262 10.677 23.3514L11.8128 22.7012C10.5747 20.5383 10.3751 18.6698 11.1262 17.3669L9.9923 16.7133ZM12.8909 26.3437C14.5666 28.1881 16.776 29.9678 19.3688 31.4671L20.0239 30.3341C17.5366 28.8958 15.436 27.1987 13.8595 25.4636L12.8909 26.3437ZM19.3688 31.4671C22.4575 33.2532 25.6212 34.3699 28.4164 34.7757C31.188 35.1782 33.702 34.8947 35.3911 33.7412L34.653 32.6604C33.357 33.5455 31.2357 33.8626 28.6044 33.4806C25.9967 33.102 22.9901 32.0493 20.0239 30.3341L19.3688 31.4671ZM38.4588 32.0662C38.4588 30.8033 37.4362 29.7777 36.1729 29.7777V31.0865C36.7116 31.0865 37.1501 31.5242 37.1501 32.0662H38.4588ZM36.1729 29.7777C34.9094 29.7777 33.8869 30.8033 33.8869 32.0662H35.1957C35.1957 31.5242 35.6342 31.0865 36.1729 31.0865V29.7777ZM33.8869 32.0662C33.8869 33.3292 34.9094 34.3547 36.1729 34.3547V33.046C35.6342 33.046 35.1957 32.6083 35.1957 32.0662H33.8869ZM36.1729 34.3547C37.4362 34.3547 38.4588 33.3292 38.4588 32.0662H37.1501C37.1501 32.6083 36.7116 33.046 36.1729 33.046V34.3547Z" fill="url(#paint1_linear_324_2)"/>
<path d="M33.4159 24.9679C33.1826 25.2439 33.2172 25.6567 33.4933 25.89C33.7693 26.1233 34.1822 26.0887 34.4154 25.8127L33.4159 24.9679ZM30.8782 14.0104C30.5169 14.0057 30.2201 14.2948 30.2154 14.6562C30.2107 15.0176 30.4998 15.3143 30.8612 15.319L30.8782 14.0104ZM27.4005 15.6968C27.7538 15.621 27.9788 15.2731 27.903 14.9197C27.8272 14.5664 27.4792 14.3414 27.1259 14.4172L27.4005 15.6968ZM9.44453 30.611C9.49692 30.9686 9.82927 31.216 10.1869 31.1636C10.5445 31.1112 10.7919 30.7789 10.7395 30.4213L9.44453 30.611ZM34.4154 25.8127C35.7413 24.2439 36.6942 22.6212 37.1475 21.0765C37.6016 19.529 37.5649 18.0116 36.8291 16.7353L35.6953 17.3889C36.2014 18.2667 36.278 19.3911 35.8916 20.708C35.5044 22.0277 34.6632 23.492 33.4159 24.9679L34.4154 25.8127ZM36.8291 16.7353C35.7515 14.8657 33.4962 14.0445 30.8782 14.0104L30.8612 15.319C33.287 15.3506 34.9569 16.1078 35.6953 17.3889L36.8291 16.7353ZM27.1259 14.4172C24.6723 14.9438 22.0008 15.976 19.3814 17.4907L20.0366 18.6237C22.5496 17.1705 25.0935 16.1919 27.4005 15.6968L27.1259 14.4172ZM19.3814 17.4907C16.2019 19.3293 13.5954 21.5918 11.8439 23.8811C10.1092 26.1487 9.14123 28.5413 9.44453 30.611L10.7395 30.4213C10.5115 28.8653 11.2352 26.8307 12.8834 24.6764C14.5148 22.5439 16.9825 20.3897 20.0366 18.6237L19.3814 17.4907Z" fill="url(#paint2_linear_324_2)"/>
<path d="M17.9999 32.9104C17.8782 32.5701 17.5037 32.3928 17.1634 32.5145C16.8231 32.6362 16.6459 33.0107 16.7676 33.351L17.9999 32.9104ZM28.7175 36.2536C28.9035 35.9437 28.803 35.5417 28.4932 35.3557C28.1833 35.1697 27.7813 35.2701 27.5954 35.58L28.7175 36.2536ZM29.0835 32.1651C28.9757 32.5101 29.168 32.8771 29.513 32.9849C29.8579 33.0926 30.2249 32.9004 30.3327 32.5554L29.0835 32.1651ZM25.2975 9.3894C24.9673 9.24253 24.5805 9.39118 24.4337 9.72138C24.2868 10.0516 24.4354 10.4384 24.7657 10.5852L25.2975 9.3894ZM16.7676 33.351C17.4607 35.2896 18.3878 36.9315 19.498 38.1001C20.6101 39.2704 21.9427 40 23.4171 40V38.6913C22.4046 38.6913 21.3932 38.1947 20.4468 37.1985C19.4983 36.2003 18.6522 34.7347 17.9999 32.9104L16.7676 33.351ZM23.4171 40C25.5568 40 27.3828 38.4771 28.7175 36.2536L27.5954 35.58C26.3598 37.6384 24.8817 38.6913 23.4171 38.6913V40ZM30.3327 32.5554C31.0672 30.2045 31.4876 27.4404 31.4876 24.4899H30.1788C30.1788 27.3206 29.775 29.952 29.0835 32.1651L30.3327 32.5554ZM31.4876 24.4899C31.4876 20.8716 30.8553 17.5298 29.7836 14.8862C28.7216 12.2663 27.1834 10.2281 25.2975 9.3894L24.7657 10.5852C26.1992 11.2227 27.5618 12.889 28.5707 15.3779C29.57 17.843 30.1788 21.0144 30.1788 24.4899H31.4876Z" fill="url(#paint3_linear_324_2)"/>
<path d="M17.9999 32.9104C17.8782 32.5701 17.5037 32.3928 17.1634 32.5145C16.8231 32.6362 16.6459 33.0107 16.7676 33.351L17.9999 32.9104ZM28.7175 36.2536C28.9035 35.9437 28.803 35.5417 28.4932 35.3557C28.1833 35.1697 27.7813 35.2701 27.5954 35.58L28.7175 36.2536ZM29.0835 32.1651C28.9757 32.5101 29.168 32.8771 29.513 32.9849C29.8579 33.0926 30.2249 32.9004 30.3327 32.5554L29.0835 32.1651ZM25.2975 9.3894C24.9673 9.24253 24.5805 9.39118 24.4337 9.72138C24.2868 10.0516 24.4354 10.4384 24.7657 10.5852L25.2975 9.3894ZM16.7676 33.351C17.4607 35.2896 18.3878 36.9315 19.498 38.1001C20.6101 39.2704 21.9427 40 23.4171 40V38.6913C22.4046 38.6913 21.3932 38.1947 20.4468 37.1985C19.4983 36.2003 18.6522 34.7347 17.9999 32.9104L16.7676 33.351ZM23.4171 40C25.5568 40 27.3828 38.4771 28.7175 36.2536L27.5954 35.58C26.3598 37.6384 24.8817 38.6913 23.4171 38.6913V40ZM30.3327 32.5554C31.0672 30.2045 31.4876 27.4404 31.4876 24.4899H30.1788C30.1788 27.3206 29.775 29.952 29.0835 32.1651L30.3327 32.5554ZM31.4876 24.4899C31.4876 20.8716 30.8553 17.5298 29.7836 14.8862C28.7216 12.2663 27.1834 10.2281 25.2975 9.3894L24.7657 10.5852C26.1992 11.2227 27.5618 12.889 28.5707 15.3779C29.57 17.843 30.1788 21.0144 30.1788 24.4899H31.4876Z" fill="url(#paint4_linear_324_2)"/>
<path fill-rule="evenodd" clip-rule="evenodd" d="M37.8044 32.0662C37.8044 31.1637 37.074 30.4321 36.1728 30.4321C35.2717 30.4321 34.5413 31.1637 34.5413 32.0662C34.5413 32.9687 35.2717 33.7003 36.1728 33.7003C37.074 33.7003 37.8044 32.9687 37.8044 32.0662Z" stroke="url(#paint5_linear_324_2)" stroke-width="1.30875" stroke-linecap="round"/>
<path fill-rule="evenodd" clip-rule="evenodd" d="M10.6315 33.7003C11.5326 33.7003 12.2631 32.9687 12.2631 32.0662C12.2631 31.1637 11.5326 30.4321 10.6315 30.4321C9.73047 30.4321 9 31.1637 9 32.0662C9 32.9687 9.73047 33.7003 10.6315 33.7003Z" stroke="url(#paint6_linear_324_2)" stroke-width="1.30875" stroke-linecap="round"/>
<path d="M23.417 11.2682C24.3181 11.2682 25.0486 10.5366 25.0486 9.63412C25.0486 8.73162 24.3181 8 23.417 8C22.516 8 21.7855 8.73162 21.7855 9.63412C21.7855 10.5366 22.516 11.2682 23.417 11.2682Z" stroke="url(#paint7_linear_324_2)" stroke-width="1.30875" stroke-linecap="round"/>
<path d="M22.4472 24.6999C22.5635 25.2375 23.0915 25.5775 23.6261 25.462C24.1616 25.3459 24.5027 24.8172 24.3868 24.2798L22.4472 24.6999ZM22.4472 24.6999C22.3315 24.1622 22.6725 23.6337 23.2077 23.5176L22.4472 24.6999ZM23.2079 23.5176C23.7424 23.402 24.2705 23.7419 24.3868 24.2796L23.2079 23.5176Z" stroke="url(#paint8_linear_324_2)"/>
<defs>
<linearGradient id="paint0_linear_324_2" x1="-0.494362" y1="-1.01281e-07" x2="45.5194" y2="46.9785" gradientUnits="userSpaceOnUse">
<stop stop-color="#33DDFF"/>
<stop offset="1" stop-color="#A2ECFB"/>
</linearGradient>
<linearGradient id="paint1_linear_324_2" x1="23.9175" y1="13.9873" x2="23.9175" y2="34.9484" gradientUnits="userSpaceOnUse">
<stop stop-color="white"/>
<stop offset="1" stop-color="white" stop-opacity="0.63"/>
</linearGradient>
<linearGradient id="paint2_linear_324_2" x1="23.417" y1="14.0103" x2="23.417" y2="31.1706" gradientUnits="userSpaceOnUse">
<stop stop-color="white"/>
<stop offset="1" stop-color="white" stop-opacity="0.63"/>
</linearGradient>
<linearGradient id="paint3_linear_324_2" x1="24.1084" y1="9.33276" x2="24.1084" y2="40" gradientUnits="userSpaceOnUse">
<stop stop-color="white"/>
<stop offset="1" stop-color="white" stop-opacity="0.63"/>
</linearGradient>
<linearGradient id="paint4_linear_324_2" x1="24.1084" y1="9.33276" x2="24.1084" y2="40" gradientUnits="userSpaceOnUse">
<stop stop-color="white"/>
<stop offset="1" stop-color="white" stop-opacity="0.63"/>
</linearGradient>
<linearGradient id="paint5_linear_324_2" x1="36.1728" y1="30.4321" x2="36.1728" y2="33.7003" gradientUnits="userSpaceOnUse">
<stop stop-color="white"/>
<stop offset="1" stop-color="white" stop-opacity="0.63"/>
</linearGradient>
<linearGradient id="paint6_linear_324_2" x1="10.6316" y1="30.4321" x2="10.6316" y2="33.7003" gradientUnits="userSpaceOnUse">
<stop stop-color="white"/>
<stop offset="1" stop-color="white" stop-opacity="0.63"/>
</linearGradient>
<linearGradient id="paint7_linear_324_2" x1="23.417" y1="8" x2="23.417" y2="11.2682" gradientUnits="userSpaceOnUse">
<stop stop-color="white"/>
<stop offset="1" stop-color="white" stop-opacity="0.63"/>
</linearGradient>
<linearGradient id="paint8_linear_324_2" x1="23.417" y1="22.9949" x2="23.417" y2="25.9846" gradientUnits="userSpaceOnUse">
<stop stop-color="white"/>
<stop offset="1" stop-color="white" stop-opacity="0.63"/>
</linearGradient>
</defs>
</svg>
