<svg width="48" height="48" viewBox="0 0 48 48" fill="none" xmlns="http://www.w3.org/2000/svg">
<rect width="48" height="48" rx="8" fill="url(#paint0_linear_5_90)"/>
<path d="M39.395 22.5735L25.4228 8.60267C24.6175 7.79866 23.3135 7.79866 22.5055 8.60267L19.6108 11.5027L23.2908 15.1827C24.1508 14.8961 25.1295 15.0894 25.8095 15.7707C26.4975 16.4574 26.6869 17.4481 26.3935 18.3041L29.9376 21.8508C30.7976 21.5535 31.7869 21.7468 32.4709 22.4308C33.4323 23.3908 33.4323 24.9428 32.4709 25.9029C31.5122 26.8615 29.9629 26.8615 29.0042 25.9029C28.2855 25.1815 28.1055 24.1202 28.4655 23.2415L25.1468 19.9401V28.6402C25.3815 28.7549 25.6028 28.9109 25.7975 29.1042C26.7482 30.0656 26.7482 31.6149 25.7975 32.5709C24.8388 33.5323 23.2788 33.5323 22.3188 32.5709C21.3601 31.6122 21.3601 30.0656 22.3188 29.1069C22.5615 28.8669 22.8348 28.6855 23.1255 28.5655V19.7801C22.8362 19.6588 22.5602 19.4841 22.3255 19.2454C21.5988 18.5188 21.4241 17.4561 21.7975 16.5668L18.1814 12.9334L8.60001 22.5081C7.8 23.3148 7.8 24.6202 8.60001 25.4268L22.5735 39.3963C23.3788 40.2017 24.6828 40.2017 25.4882 39.3963L39.395 25.4895C40.2017 24.6855 40.2017 23.3802 39.395 22.5735Z" fill="url(#paint1_radial_5_90)"/>
<defs>
<linearGradient id="paint0_linear_5_90" x1="-1.5" y1="1.5" x2="48" y2="50.5" gradientUnits="userSpaceOnUse">
<stop stop-color="#FF9582"/>
<stop offset="1" stop-color="#FF2800"/>
</linearGradient>
<radialGradient id="paint1_radial_5_90" cx="0" cy="0" r="1" gradientUnits="userSpaceOnUse" gradientTransform="translate(39.7528 7.99967) rotate(134.849) scale(40.2001 35.7532)">
<stop offset="0.54" stop-color="white"/>
<stop offset="1" stop-color="white" stop-opacity="0.71"/>
</radialGradient>
</defs>
</svg>
