<svg width="48" height="48" viewBox="0 0 48 48" fill="none" xmlns="http://www.w3.org/2000/svg">
<rect width="48" height="48" rx="8" fill="url(#paint0_linear_2_67)"/>
<path d="M8 8H40V40H8V8ZM37.3787 32.368C37.1453 30.908 36.1947 29.6813 33.3747 28.5373C32.3933 28.0773 31.3027 27.7573 30.9787 27.0173C30.8573 26.5773 30.8387 26.3373 30.9173 26.0773C31.1173 25.216 32.1373 24.9573 32.9373 25.1973C33.4573 25.3573 33.9373 25.7573 34.2387 26.3973C35.6173 25.496 35.6173 25.496 36.5787 24.8973C36.2187 24.3373 36.04 24.096 35.7973 23.8573C34.9573 22.9173 33.8387 22.4373 32.0187 22.4787L31.0787 22.5973C30.1773 22.8173 29.3187 23.2973 28.7987 23.9373C27.2787 25.6587 27.7173 28.6587 29.5573 29.8987C31.3773 31.2587 34.0387 31.5573 34.3787 32.8387C34.6987 34.3987 33.2187 34.8987 31.7573 34.7187C30.676 34.4787 30.0773 33.9373 29.4173 32.9373L26.9773 34.3387C27.2573 34.9787 27.5773 35.2573 28.0573 35.8173C30.3773 38.1587 36.1773 38.0387 37.2187 34.4787C37.2573 34.3587 37.5387 33.5387 37.3173 32.2787L37.3787 32.368ZM25.4013 22.708H22.404C22.404 25.292 22.392 27.86 22.392 30.448C22.392 32.0907 22.476 33.5987 22.208 34.0627C21.768 34.9813 20.6347 34.864 20.12 34.7027C19.592 34.4413 19.324 34.0813 19.0133 33.5627C18.9293 33.4227 18.8667 33.3013 18.844 33.3013L16.4107 34.8013C16.8173 35.6413 17.4107 36.364 18.176 36.824C19.316 37.504 20.848 37.724 22.452 37.364C23.496 37.0627 24.396 36.4427 24.8667 35.4827C25.5467 34.2427 25.4027 32.7227 25.396 31.0213C25.412 28.2827 25.396 25.5427 25.396 22.7827L25.4013 22.708Z" fill="url(#paint1_radial_2_67)"/>
<defs>
<linearGradient id="paint0_linear_2_67" x1="2" y1="2" x2="48" y2="49" gradientUnits="userSpaceOnUse">
<stop stop-color="#FFD748"/>
<stop offset="1" stop-color="#FFC700"/>
</linearGradient>
<radialGradient id="paint1_radial_2_67" cx="0" cy="0" r="1" gradientUnits="userSpaceOnUse" gradientTransform="translate(39.7528 8) rotate(134.85) scale(40.1997 35.7528)">
<stop offset="0.54" stop-color="white"/>
<stop offset="1" stop-color="white" stop-opacity="0.71"/>
</radialGradient>
</defs>
</svg>
