<svg width="48" height="48" viewBox="0 0 48 48" fill="none" xmlns="http://www.w3.org/2000/svg">
<rect width="48" height="48" rx="8" fill="url(#paint0_linear_4_77)"/>
<path d="M29.8733 13.1999C29.72 13.1999 29.616 13.2186 29.508 13.2439V13.2612H29.5267C29.5987 13.3999 29.7213 13.5012 29.812 13.6252C29.884 13.7679 29.9453 13.9106 30.0173 14.0519L30.036 14.0319C30.1613 13.9439 30.2227 13.8026 30.2227 13.5879C30.1693 13.5252 30.1613 13.4626 30.116 13.4012C30.0627 13.3119 29.948 13.2679 29.876 13.1972L29.8733 13.1999ZM15.6933 30.7919H14.4573C14.4226 28.8276 14.3025 26.8658 14.0973 24.9119H14.0867L12.2067 30.7919H11.2667L9.4 24.9119H9.38667C9.24066 26.8688 9.15395 28.8297 9.12667 30.7919H8C8.07333 28.1706 8.256 25.7119 8.54667 23.4186H10.08L11.86 28.8372H11.8707L13.6667 23.4186H15.1267C15.4493 26.1052 15.6387 28.5652 15.6973 30.7919H15.6933ZM21.0493 25.3519C20.5453 28.0786 19.8813 30.0626 19.06 31.2986C18.4173 32.2532 17.7133 32.7292 16.9493 32.7292C16.7453 32.7292 16.496 32.6679 16.1947 32.5452V31.8866C16.3413 31.9092 16.5147 31.9212 16.7093 31.9212C17.0667 31.9212 17.3533 31.8212 17.572 31.6252C17.8347 31.3852 17.9653 31.1159 17.9653 30.8186C17.9653 30.6119 17.8627 30.1919 17.6587 29.5599L16.3067 25.3519H17.52L18.4893 28.4986C18.708 29.2132 18.8 29.7119 18.7627 29.9959C19.296 28.5772 19.6667 27.0266 19.876 25.3519H21.0493ZM37.4827 30.7919H33.976V23.4186H35.156V29.8852H37.4827V30.7919ZM33.056 30.9719L31.7013 30.3052C31.8213 30.2039 31.9373 30.0946 32.0413 29.9719C32.6187 29.2972 32.9053 28.2946 32.9053 26.9679C32.9053 24.5279 31.948 23.3066 30.032 23.3066C29.0933 23.3066 28.36 23.6159 27.832 24.2359C27.2587 24.9132 26.9707 25.9106 26.9707 27.2292C26.9707 28.5252 27.224 29.4772 27.736 30.0826C28.2027 30.6292 28.9053 30.9026 29.8467 30.9026C30.1987 30.9026 30.5213 30.8586 30.8133 30.7719L32.58 31.8012L33.06 30.9719H33.056ZM28.6667 29.3159C28.3667 28.8359 28.2173 28.0626 28.2173 27.0012C28.2173 25.1439 28.7827 24.2146 29.9107 24.2146C30.5013 24.2146 30.9373 24.4372 31.2133 24.8812C31.512 25.3639 31.6613 26.1292 31.6613 27.1786C31.6613 29.0506 31.096 29.9892 29.968 29.9892C29.3747 29.9892 28.9413 29.7666 28.664 29.3226L28.6667 29.3159ZM26.456 28.7492C26.456 29.3759 26.2267 29.8906 25.768 30.2906C25.3093 30.6906 24.6973 30.8906 23.9227 30.8906C23.1987 30.8906 22.504 30.6612 21.8253 30.2039L22.1413 29.5692C22.7253 29.8626 23.252 30.0066 23.728 30.0066C24.1707 30.0066 24.5187 29.9092 24.772 29.7132C24.8986 29.6178 25.0009 29.4937 25.0704 29.3512C25.1399 29.2087 25.1747 29.0518 25.172 28.8932C25.172 28.4532 24.8653 28.0799 24.308 27.7666C23.7907 27.4826 22.7573 26.8906 22.7573 26.8906C22.1947 26.4812 21.9147 26.0426 21.9147 25.3212C21.9147 24.7212 22.124 24.2412 22.5413 23.8746C22.9613 23.5039 23.5013 23.3212 24.168 23.3212C24.8507 23.3212 25.4747 23.5026 26.0347 23.8679L25.7507 24.5026C25.3032 24.306 24.8207 24.2017 24.332 24.1959C23.9547 24.1959 23.6627 24.2866 23.46 24.4706C23.3572 24.5558 23.2742 24.6625 23.2171 24.7832C23.16 24.9039 23.13 25.0357 23.1293 25.1692C23.1293 25.6066 23.4413 25.9826 24.0173 26.3026C24.5413 26.5892 25.6 27.1959 25.6 27.1959C26.1773 27.6026 26.464 28.0359 26.464 28.7532L26.456 28.7492ZM38.9653 20.9466C38.252 20.9279 37.6987 20.9999 37.236 21.1972C37.1027 21.2506 36.8893 21.2506 36.8707 21.4199C36.944 21.4906 36.9547 21.6066 37.0173 21.7052C37.124 21.8839 37.308 22.1226 37.4787 22.2479C37.6653 22.3946 37.852 22.5359 38.048 22.6612C38.3947 22.8746 38.788 23.0012 39.128 23.2159C39.3213 23.3412 39.5187 23.4999 39.7147 23.6332C39.812 23.6999 39.8747 23.8199 40 23.8626V23.8359C39.9387 23.7559 39.92 23.6399 39.86 23.5506C39.7707 23.4612 39.6813 23.3812 39.5933 23.2932C39.3316 22.9483 39.0191 22.6448 38.6667 22.3932C38.3813 22.1986 37.7573 21.9266 37.64 21.5999L37.6227 21.5812C37.8173 21.5639 38.0493 21.4932 38.236 21.4399C38.5387 21.3599 38.816 21.3772 39.1293 21.2986C39.2707 21.2626 39.4133 21.2186 39.556 21.1732V21.0932C39.396 20.9332 39.276 20.7159 39.1107 20.5666C38.6492 20.1632 38.157 19.7963 37.6387 19.4692C37.3587 19.2906 37.004 19.1759 36.7093 19.0239C36.6027 18.9706 36.424 18.9439 36.3627 18.8546C36.2027 18.6599 36.1093 18.4012 35.996 18.1692C35.7342 17.6614 35.4909 17.1441 35.2667 16.6186C35.1067 16.2692 35.0093 15.9212 34.8133 15.6012C33.8933 14.0852 32.8973 13.1666 31.3653 12.2679C31.036 12.0812 30.6413 12.0012 30.224 11.9026C30.0013 11.8919 29.7787 11.8759 29.5573 11.8666C29.4107 11.8039 29.2693 11.6346 29.144 11.5532C28.6373 11.2332 27.3253 10.5399 26.952 11.4572C26.712 12.0359 27.308 12.6066 27.5147 12.8999C27.668 13.1039 27.8613 13.3372 27.968 13.5666C28.0307 13.7212 28.048 13.8799 28.1107 14.0412C28.252 14.4332 28.3867 14.8706 28.5733 15.2372C28.6707 15.4239 28.7773 15.6199 28.9027 15.7879C28.9747 15.8852 29.0973 15.9306 29.1253 16.0906C29 16.2719 28.992 16.5359 28.92 16.7572C28.6 17.7666 28.7253 19.0146 29.1787 19.7572C29.3213 19.9786 29.6613 20.4692 30.116 20.2812C30.516 20.1212 30.428 19.6146 30.5427 19.1679C30.5693 19.0612 30.552 18.9906 30.6067 18.9186V18.9386C30.732 19.1892 30.8573 19.4279 30.972 19.6786C31.2467 20.1159 31.7267 20.5692 32.128 20.8719C32.3413 21.0319 32.5107 21.3092 32.7773 21.4079V21.3812H32.7573C32.7 21.3039 32.624 21.2666 32.552 21.2039C32.3829 21.0384 32.2269 20.8601 32.0853 20.6706C31.7097 20.1573 31.3766 19.6141 31.0893 19.0466C30.9427 18.7666 30.82 18.4652 30.7027 18.1892C30.6493 18.0826 30.6493 17.9226 30.56 17.8692C30.4267 18.0639 30.2307 18.2332 30.1333 18.4732C29.964 18.8572 29.9467 19.3292 29.8827 19.8199C29.8467 19.8292 29.864 19.8199 29.8467 19.8386C29.5613 19.7692 29.464 19.4732 29.3573 19.2252C29.0907 18.5919 29.0467 17.5746 29.2773 16.8452C29.34 16.6586 29.6067 16.0692 29.5 15.8906C29.444 15.7212 29.268 15.6239 29.1707 15.4866C29.0455 15.3078 28.9383 15.1171 28.8507 14.9172C28.6373 14.4186 28.5307 13.8666 28.2987 13.3679C28.192 13.1372 28.0053 12.8959 27.8533 12.6839C27.684 12.4439 27.4973 12.2746 27.3627 11.9906C27.3187 11.8932 27.256 11.7319 27.3267 11.6252C27.3453 11.5532 27.3827 11.5252 27.452 11.5052C27.5693 11.4092 27.8987 11.5346 28.0147 11.5879C28.344 11.7212 28.6213 11.8466 28.8973 12.0332C29.0227 12.1212 29.1573 12.2906 29.3173 12.3346H29.504C29.7893 12.3972 30.1107 12.3532 30.3773 12.4319C30.8507 12.5839 31.2773 12.8052 31.66 13.0452C32.8391 13.7985 33.7982 14.85 34.44 16.0932C34.5467 16.2986 34.5933 16.4866 34.6907 16.6999C34.8773 17.1399 35.108 17.5839 35.2973 18.0092C35.484 18.4292 35.664 18.8572 35.932 19.2052C36.0653 19.3919 36.6013 19.4892 36.8413 19.5866C37.0187 19.6666 37.2947 19.7399 37.4547 19.8372C37.7613 20.0239 38.06 20.2372 38.348 20.4426C38.4947 20.5439 38.9387 20.7666 38.9653 20.9466Z" fill="url(#paint1_radial_4_77)"/>
<path d="M29.8733 13.1999C29.72 13.1999 29.616 13.2186 29.508 13.2439V13.2612H29.5267C29.5987 13.3999 29.7213 13.5012 29.812 13.6252C29.884 13.7679 29.9453 13.9106 30.0173 14.0519L30.036 14.0319C30.1613 13.9439 30.2227 13.8026 30.2227 13.5879C30.1693 13.5252 30.1613 13.4626 30.116 13.4012C30.0627 13.3119 29.948 13.2679 29.876 13.1972L29.8733 13.1999ZM15.6933 30.7919H14.4573C14.4226 28.8276 14.3025 26.8658 14.0973 24.9119H14.0867L12.2067 30.7919H11.2667L9.4 24.9119H9.38667C9.24066 26.8688 9.15395 28.8297 9.12667 30.7919H8C8.07333 28.1706 8.256 25.7119 8.54667 23.4186H10.08L11.86 28.8372H11.8707L13.6667 23.4186H15.1267C15.4493 26.1052 15.6387 28.5652 15.6973 30.7919H15.6933ZM21.0493 25.3519C20.5453 28.0786 19.8813 30.0626 19.06 31.2986C18.4173 32.2532 17.7133 32.7292 16.9493 32.7292C16.7453 32.7292 16.496 32.6679 16.1947 32.5452V31.8866C16.3413 31.9092 16.5147 31.9212 16.7093 31.9212C17.0667 31.9212 17.3533 31.8212 17.572 31.6252C17.8347 31.3852 17.9653 31.1159 17.9653 30.8186C17.9653 30.6119 17.8627 30.1919 17.6587 29.5599L16.3067 25.3519H17.52L18.4893 28.4986C18.708 29.2132 18.8 29.7119 18.7627 29.9959C19.296 28.5772 19.6667 27.0266 19.876 25.3519H21.0493ZM37.4827 30.7919H33.976V23.4186H35.156V29.8852H37.4827V30.7919ZM33.056 30.9719L31.7013 30.3052C31.8213 30.2039 31.9373 30.0946 32.0413 29.9719C32.6187 29.2972 32.9053 28.2946 32.9053 26.9679C32.9053 24.5279 31.948 23.3066 30.032 23.3066C29.0933 23.3066 28.36 23.6159 27.832 24.2359C27.2587 24.9132 26.9707 25.9106 26.9707 27.2292C26.9707 28.5252 27.224 29.4772 27.736 30.0826C28.2027 30.6292 28.9053 30.9026 29.8467 30.9026C30.1987 30.9026 30.5213 30.8586 30.8133 30.7719L32.58 31.8012L33.06 30.9719H33.056ZM28.6667 29.3159C28.3667 28.8359 28.2173 28.0626 28.2173 27.0012C28.2173 25.1439 28.7827 24.2146 29.9107 24.2146C30.5013 24.2146 30.9373 24.4372 31.2133 24.8812C31.512 25.3639 31.6613 26.1292 31.6613 27.1786C31.6613 29.0506 31.096 29.9892 29.968 29.9892C29.3747 29.9892 28.9413 29.7666 28.664 29.3226L28.6667 29.3159ZM26.456 28.7492C26.456 29.3759 26.2267 29.8906 25.768 30.2906C25.3093 30.6906 24.6973 30.8906 23.9227 30.8906C23.1987 30.8906 22.504 30.6612 21.8253 30.2039L22.1413 29.5692C22.7253 29.8626 23.252 30.0066 23.728 30.0066C24.1707 30.0066 24.5187 29.9092 24.772 29.7132C24.8986 29.6178 25.0009 29.4937 25.0704 29.3512C25.1399 29.2087 25.1747 29.0518 25.172 28.8932C25.172 28.4532 24.8653 28.0799 24.308 27.7666C23.7907 27.4826 22.7573 26.8906 22.7573 26.8906C22.1947 26.4812 21.9147 26.0426 21.9147 25.3212C21.9147 24.7212 22.124 24.2412 22.5413 23.8746C22.9613 23.5039 23.5013 23.3212 24.168 23.3212C24.8507 23.3212 25.4747 23.5026 26.0347 23.8679L25.7507 24.5026C25.3032 24.306 24.8207 24.2017 24.332 24.1959C23.9547 24.1959 23.6627 24.2866 23.46 24.4706C23.3572 24.5558 23.2742 24.6625 23.2171 24.7832C23.16 24.9039 23.13 25.0357 23.1293 25.1692C23.1293 25.6066 23.4413 25.9826 24.0173 26.3026C24.5413 26.5892 25.6 27.1959 25.6 27.1959C26.1773 27.6026 26.464 28.0359 26.464 28.7532L26.456 28.7492ZM38.9653 20.9466C38.252 20.9279 37.6987 20.9999 37.236 21.1972C37.1027 21.2506 36.8893 21.2506 36.8707 21.4199C36.944 21.4906 36.9547 21.6066 37.0173 21.7052C37.124 21.8839 37.308 22.1226 37.4787 22.2479C37.6653 22.3946 37.852 22.5359 38.048 22.6612C38.3947 22.8746 38.788 23.0012 39.128 23.2159C39.3213 23.3412 39.5187 23.4999 39.7147 23.6332C39.812 23.6999 39.8747 23.8199 40 23.8626V23.8359C39.9387 23.7559 39.92 23.6399 39.86 23.5506C39.7707 23.4612 39.6813 23.3812 39.5933 23.2932C39.3316 22.9483 39.0191 22.6448 38.6667 22.3932C38.3813 22.1986 37.7573 21.9266 37.64 21.5999L37.6227 21.5812C37.8173 21.5639 38.0493 21.4932 38.236 21.4399C38.5387 21.3599 38.816 21.3772 39.1293 21.2986C39.2707 21.2626 39.4133 21.2186 39.556 21.1732V21.0932C39.396 20.9332 39.276 20.7159 39.1107 20.5666C38.6492 20.1632 38.157 19.7963 37.6387 19.4692C37.3587 19.2906 37.004 19.1759 36.7093 19.0239C36.6027 18.9706 36.424 18.9439 36.3627 18.8546C36.2027 18.6599 36.1093 18.4012 35.996 18.1692C35.7342 17.6614 35.4909 17.1441 35.2667 16.6186C35.1067 16.2692 35.0093 15.9212 34.8133 15.6012C33.8933 14.0852 32.8973 13.1666 31.3653 12.2679C31.036 12.0812 30.6413 12.0012 30.224 11.9026C30.0013 11.8919 29.7787 11.8759 29.5573 11.8666C29.4107 11.8039 29.2693 11.6346 29.144 11.5532C28.6373 11.2332 27.3253 10.5399 26.952 11.4572C26.712 12.0359 27.308 12.6066 27.5147 12.8999C27.668 13.1039 27.8613 13.3372 27.968 13.5666C28.0307 13.7212 28.048 13.8799 28.1107 14.0412C28.252 14.4332 28.3867 14.8706 28.5733 15.2372C28.6707 15.4239 28.7773 15.6199 28.9027 15.7879C28.9747 15.8852 29.0973 15.9306 29.1253 16.0906C29 16.2719 28.992 16.5359 28.92 16.7572C28.6 17.7666 28.7253 19.0146 29.1787 19.7572C29.3213 19.9786 29.6613 20.4692 30.116 20.2812C30.516 20.1212 30.428 19.6146 30.5427 19.1679C30.5693 19.0612 30.552 18.9906 30.6067 18.9186V18.9386C30.732 19.1892 30.8573 19.4279 30.972 19.6786C31.2467 20.1159 31.7267 20.5692 32.128 20.8719C32.3413 21.0319 32.5107 21.3092 32.7773 21.4079V21.3812H32.7573C32.7 21.3039 32.624 21.2666 32.552 21.2039C32.3829 21.0384 32.2269 20.8601 32.0853 20.6706C31.7097 20.1573 31.3766 19.6141 31.0893 19.0466C30.9427 18.7666 30.82 18.4652 30.7027 18.1892C30.6493 18.0826 30.6493 17.9226 30.56 17.8692C30.4267 18.0639 30.2307 18.2332 30.1333 18.4732C29.964 18.8572 29.9467 19.3292 29.8827 19.8199C29.8467 19.8292 29.864 19.8199 29.8467 19.8386C29.5613 19.7692 29.464 19.4732 29.3573 19.2252C29.0907 18.5919 29.0467 17.5746 29.2773 16.8452C29.34 16.6586 29.6067 16.0692 29.5 15.8906C29.444 15.7212 29.268 15.6239 29.1707 15.4866C29.0455 15.3078 28.9383 15.1171 28.8507 14.9172C28.6373 14.4186 28.5307 13.8666 28.2987 13.3679C28.192 13.1372 28.0053 12.8959 27.8533 12.6839C27.684 12.4439 27.4973 12.2746 27.3627 11.9906C27.3187 11.8932 27.256 11.7319 27.3267 11.6252C27.3453 11.5532 27.3827 11.5252 27.452 11.5052C27.5693 11.4092 27.8987 11.5346 28.0147 11.5879C28.344 11.7212 28.6213 11.8466 28.8973 12.0332C29.0227 12.1212 29.1573 12.2906 29.3173 12.3346H29.504C29.7893 12.3972 30.1107 12.3532 30.3773 12.4319C30.8507 12.5839 31.2773 12.8052 31.66 13.0452C32.8391 13.7985 33.7982 14.85 34.44 16.0932C34.5467 16.2986 34.5933 16.4866 34.6907 16.6999C34.8773 17.1399 35.108 17.5839 35.2973 18.0092C35.484 18.4292 35.664 18.8572 35.932 19.2052C36.0653 19.3919 36.6013 19.4892 36.8413 19.5866C37.0187 19.6666 37.2947 19.7399 37.4547 19.8372C37.7613 20.0239 38.06 20.2372 38.348 20.4426C38.4947 20.5439 38.9387 20.7666 38.9653 20.9466Z" stroke="white" stroke-width="0.5"/>
<path d="M29.8733 13.1999C29.72 13.1999 29.616 13.2186 29.508 13.2439V13.2612H29.5267C29.5987 13.3999 29.7213 13.5012 29.812 13.6252C29.884 13.7679 29.9453 13.9106 30.0173 14.0519L30.036 14.0319C30.1613 13.9439 30.2227 13.8026 30.2227 13.5879C30.1693 13.5252 30.1613 13.4626 30.116 13.4012C30.0627 13.3119 29.948 13.2679 29.876 13.1972L29.8733 13.1999ZM15.6933 30.7919H14.4573C14.4226 28.8276 14.3025 26.8658 14.0973 24.9119H14.0867L12.2067 30.7919H11.2667L9.4 24.9119H9.38667C9.24066 26.8688 9.15395 28.8297 9.12667 30.7919H8C8.07333 28.1706 8.256 25.7119 8.54667 23.4186H10.08L11.86 28.8372H11.8707L13.6667 23.4186H15.1267C15.4493 26.1052 15.6387 28.5652 15.6973 30.7919H15.6933ZM21.0493 25.3519C20.5453 28.0786 19.8813 30.0626 19.06 31.2986C18.4173 32.2532 17.7133 32.7292 16.9493 32.7292C16.7453 32.7292 16.496 32.6679 16.1947 32.5452V31.8866C16.3413 31.9092 16.5147 31.9212 16.7093 31.9212C17.0667 31.9212 17.3533 31.8212 17.572 31.6252C17.8347 31.3852 17.9653 31.1159 17.9653 30.8186C17.9653 30.6119 17.8627 30.1919 17.6587 29.5599L16.3067 25.3519H17.52L18.4893 28.4986C18.708 29.2132 18.8 29.7119 18.7627 29.9959C19.296 28.5772 19.6667 27.0266 19.876 25.3519H21.0493ZM37.4827 30.7919H33.976V23.4186H35.156V29.8852H37.4827V30.7919ZM33.056 30.9719L31.7013 30.3052C31.8213 30.2039 31.9373 30.0946 32.0413 29.9719C32.6187 29.2972 32.9053 28.2946 32.9053 26.9679C32.9053 24.5279 31.948 23.3066 30.032 23.3066C29.0933 23.3066 28.36 23.6159 27.832 24.2359C27.2587 24.9132 26.9707 25.9106 26.9707 27.2292C26.9707 28.5252 27.224 29.4772 27.736 30.0826C28.2027 30.6292 28.9053 30.9026 29.8467 30.9026C30.1987 30.9026 30.5213 30.8586 30.8133 30.7719L32.58 31.8012L33.06 30.9719H33.056ZM28.6667 29.3159C28.3667 28.8359 28.2173 28.0626 28.2173 27.0012C28.2173 25.1439 28.7827 24.2146 29.9107 24.2146C30.5013 24.2146 30.9373 24.4372 31.2133 24.8812C31.512 25.3639 31.6613 26.1292 31.6613 27.1786C31.6613 29.0506 31.096 29.9892 29.968 29.9892C29.3747 29.9892 28.9413 29.7666 28.664 29.3226L28.6667 29.3159ZM26.456 28.7492C26.456 29.3759 26.2267 29.8906 25.768 30.2906C25.3093 30.6906 24.6973 30.8906 23.9227 30.8906C23.1987 30.8906 22.504 30.6612 21.8253 30.2039L22.1413 29.5692C22.7253 29.8626 23.252 30.0066 23.728 30.0066C24.1707 30.0066 24.5187 29.9092 24.772 29.7132C24.8986 29.6178 25.0009 29.4937 25.0704 29.3512C25.1399 29.2087 25.1747 29.0518 25.172 28.8932C25.172 28.4532 24.8653 28.0799 24.308 27.7666C23.7907 27.4826 22.7573 26.8906 22.7573 26.8906C22.1947 26.4812 21.9147 26.0426 21.9147 25.3212C21.9147 24.7212 22.124 24.2412 22.5413 23.8746C22.9613 23.5039 23.5013 23.3212 24.168 23.3212C24.8507 23.3212 25.4747 23.5026 26.0347 23.8679L25.7507 24.5026C25.3032 24.306 24.8207 24.2017 24.332 24.1959C23.9547 24.1959 23.6627 24.2866 23.46 24.4706C23.3572 24.5558 23.2742 24.6625 23.2171 24.7832C23.16 24.9039 23.13 25.0357 23.1293 25.1692C23.1293 25.6066 23.4413 25.9826 24.0173 26.3026C24.5413 26.5892 25.6 27.1959 25.6 27.1959C26.1773 27.6026 26.464 28.0359 26.464 28.7532L26.456 28.7492ZM38.9653 20.9466C38.252 20.9279 37.6987 20.9999 37.236 21.1972C37.1027 21.2506 36.8893 21.2506 36.8707 21.4199C36.944 21.4906 36.9547 21.6066 37.0173 21.7052C37.124 21.8839 37.308 22.1226 37.4787 22.2479C37.6653 22.3946 37.852 22.5359 38.048 22.6612C38.3947 22.8746 38.788 23.0012 39.128 23.2159C39.3213 23.3412 39.5187 23.4999 39.7147 23.6332C39.812 23.6999 39.8747 23.8199 40 23.8626V23.8359C39.9387 23.7559 39.92 23.6399 39.86 23.5506C39.7707 23.4612 39.6813 23.3812 39.5933 23.2932C39.3316 22.9483 39.0191 22.6448 38.6667 22.3932C38.3813 22.1986 37.7573 21.9266 37.64 21.5999L37.6227 21.5812C37.8173 21.5639 38.0493 21.4932 38.236 21.4399C38.5387 21.3599 38.816 21.3772 39.1293 21.2986C39.2707 21.2626 39.4133 21.2186 39.556 21.1732V21.0932C39.396 20.9332 39.276 20.7159 39.1107 20.5666C38.6492 20.1632 38.157 19.7963 37.6387 19.4692C37.3587 19.2906 37.004 19.1759 36.7093 19.0239C36.6027 18.9706 36.424 18.9439 36.3627 18.8546C36.2027 18.6599 36.1093 18.4012 35.996 18.1692C35.7342 17.6614 35.4909 17.1441 35.2667 16.6186C35.1067 16.2692 35.0093 15.9212 34.8133 15.6012C33.8933 14.0852 32.8973 13.1666 31.3653 12.2679C31.036 12.0812 30.6413 12.0012 30.224 11.9026C30.0013 11.8919 29.7787 11.8759 29.5573 11.8666C29.4107 11.8039 29.2693 11.6346 29.144 11.5532C28.6373 11.2332 27.3253 10.5399 26.952 11.4572C26.712 12.0359 27.308 12.6066 27.5147 12.8999C27.668 13.1039 27.8613 13.3372 27.968 13.5666C28.0307 13.7212 28.048 13.8799 28.1107 14.0412C28.252 14.4332 28.3867 14.8706 28.5733 15.2372C28.6707 15.4239 28.7773 15.6199 28.9027 15.7879C28.9747 15.8852 29.0973 15.9306 29.1253 16.0906C29 16.2719 28.992 16.5359 28.92 16.7572C28.6 17.7666 28.7253 19.0146 29.1787 19.7572C29.3213 19.9786 29.6613 20.4692 30.116 20.2812C30.516 20.1212 30.428 19.6146 30.5427 19.1679C30.5693 19.0612 30.552 18.9906 30.6067 18.9186V18.9386C30.732 19.1892 30.8573 19.4279 30.972 19.6786C31.2467 20.1159 31.7267 20.5692 32.128 20.8719C32.3413 21.0319 32.5107 21.3092 32.7773 21.4079V21.3812H32.7573C32.7 21.3039 32.624 21.2666 32.552 21.2039C32.3829 21.0384 32.2269 20.8601 32.0853 20.6706C31.7097 20.1573 31.3766 19.6141 31.0893 19.0466C30.9427 18.7666 30.82 18.4652 30.7027 18.1892C30.6493 18.0826 30.6493 17.9226 30.56 17.8692C30.4267 18.0639 30.2307 18.2332 30.1333 18.4732C29.964 18.8572 29.9467 19.3292 29.8827 19.8199C29.8467 19.8292 29.864 19.8199 29.8467 19.8386C29.5613 19.7692 29.464 19.4732 29.3573 19.2252C29.0907 18.5919 29.0467 17.5746 29.2773 16.8452C29.34 16.6586 29.6067 16.0692 29.5 15.8906C29.444 15.7212 29.268 15.6239 29.1707 15.4866C29.0455 15.3078 28.9383 15.1171 28.8507 14.9172C28.6373 14.4186 28.5307 13.8666 28.2987 13.3679C28.192 13.1372 28.0053 12.8959 27.8533 12.6839C27.684 12.4439 27.4973 12.2746 27.3627 11.9906C27.3187 11.8932 27.256 11.7319 27.3267 11.6252C27.3453 11.5532 27.3827 11.5252 27.452 11.5052C27.5693 11.4092 27.8987 11.5346 28.0147 11.5879C28.344 11.7212 28.6213 11.8466 28.8973 12.0332C29.0227 12.1212 29.1573 12.2906 29.3173 12.3346H29.504C29.7893 12.3972 30.1107 12.3532 30.3773 12.4319C30.8507 12.5839 31.2773 12.8052 31.66 13.0452C32.8391 13.7985 33.7982 14.85 34.44 16.0932C34.5467 16.2986 34.5933 16.4866 34.6907 16.6999C34.8773 17.1399 35.108 17.5839 35.2973 18.0092C35.484 18.4292 35.664 18.8572 35.932 19.2052C36.0653 19.3919 36.6013 19.4892 36.8413 19.5866C37.0187 19.6666 37.2947 19.7399 37.4547 19.8372C37.7613 20.0239 38.06 20.2372 38.348 20.4426C38.4947 20.5439 38.9387 20.7666 38.9653 20.9466Z" stroke="url(#paint2_radial_4_77)" stroke-width="0.5"/>
<defs>
<linearGradient id="paint0_linear_4_77" x1="-1.5" y1="1.5" x2="48" y2="50.5" gradientUnits="userSpaceOnUse">
<stop stop-color="#42759C"/>
<stop offset="1" stop-color="#2D5C80"/>
</linearGradient>
<radialGradient id="paint1_radial_4_77" cx="0" cy="0" r="1" gradientUnits="userSpaceOnUse" gradientTransform="translate(39.7528 11) rotate(145.682) scale(34.3262 28.4316)">
<stop offset="0.54" stop-color="white"/>
<stop offset="1" stop-color="white" stop-opacity="0.71"/>
</radialGradient>
<radialGradient id="paint2_radial_4_77" cx="0" cy="0" r="1" gradientUnits="userSpaceOnUse" gradientTransform="translate(39.7528 11) rotate(145.682) scale(34.3262 28.4316)">
<stop offset="0.54" stop-color="white"/>
<stop offset="1" stop-color="white" stop-opacity="0.71"/>
</radialGradient>
</defs>
</svg>
