<svg width="48" height="48" viewBox="0 0 48 48" fill="none" xmlns="http://www.w3.org/2000/svg">
<rect width="48" height="48" rx="8" fill="url(#paint0_linear_2_70)"/>
<path d="M27.7491 28.2409C25.0544 28.2409 24.4798 27.5286 24.3093 26.3788C24.2901 26.2419 24.2196 26.1161 24.1105 26.0242C24.0015 25.9324 23.8612 25.8807 23.7153 25.8784H22.2844C22.1231 25.8816 21.9698 25.9452 21.8579 26.0551C21.7461 26.165 21.6848 26.3124 21.6875 26.4649C21.6875 27.4616 22.0575 30.7148 27.752 30.7148C29.5139 30.7148 30.9794 30.3252 31.989 29.5876C32.9985 28.85 33.5391 27.7768 33.5391 26.4977C33.5391 23.9309 31.7685 23.2281 28.2817 22.7687C24.7371 22.3025 24.7371 22.0653 24.7371 21.5458C24.7371 21.1719 24.7371 20.2962 27.2996 20.2962C29.1229 20.2962 30.0992 20.5143 30.4114 21.6634C30.439 21.7908 30.5119 21.9054 30.6178 21.9883C30.7237 22.0713 30.8564 22.1175 30.9939 22.1193H32.4298C32.5144 22.1185 32.5979 22.1007 32.6746 22.067C32.7514 22.0333 32.8197 21.9845 32.8749 21.9238C32.9853 21.8019 33.0404 21.6437 33.0281 21.4836C32.8424 19.0534 30.9642 17.8209 27.3018 17.8209C23.9733 17.8209 21.9867 19.2393 21.9867 21.6148C21.9867 24.2193 24.0455 24.9556 27.1385 25.2604C30.7518 25.6139 30.7518 26.1293 30.7518 26.5846C30.7539 27.2941 30.4425 28.2409 27.7491 28.2409Z" fill="url(#paint1_radial_2_70)"/>
<path d="M36.5569 15.3907L25.3246 9.01825C24.9212 8.80067 24.4648 8.68625 24.0004 8.68625C23.536 8.68625 23.0796 8.80067 22.6761 9.01825L11.4431 15.39C11.0383 15.6247 10.7043 15.9541 10.4734 16.3465C10.2425 16.739 10.1225 17.1811 10.125 17.6302V30.3566C10.1226 30.806 10.2426 31.2484 10.4735 31.6411C10.7043 32.0338 11.0383 32.3637 11.4431 32.5988L14.3887 34.2627L14.4053 34.2716C15.8925 34.9914 16.462 34.9914 17.1218 34.9914C19.4444 34.9914 20.8875 33.5695 20.8875 31.2802V18.9406C20.8889 18.7866 20.8256 18.6383 20.7115 18.5283C20.5974 18.4184 20.4419 18.3557 20.279 18.3541H18.6617C18.4989 18.3557 18.3434 18.4184 18.2293 18.5283C18.1152 18.6383 18.0519 18.7866 18.0533 18.9406V31.2802C18.0592 31.4568 18.0167 31.6319 17.9299 31.7885C17.8432 31.945 17.7152 32.0777 17.5582 32.1736C17.1319 32.4197 16.5126 32.3678 15.8138 32.0266L12.9911 30.4195C12.9803 30.4125 12.9714 30.4032 12.9654 30.3922C12.9593 30.3812 12.9562 30.369 12.9564 30.3566V17.8099C12.9568 17.7955 12.961 17.7814 12.9684 17.7688C12.9758 17.7562 12.9863 17.7455 12.999 17.7375L23.9718 11.3801C23.98 11.3762 23.989 11.3742 23.9982 11.3742C24.0074 11.3742 24.0164 11.3762 24.0246 11.3801L35.0039 17.7375C35.0164 17.7461 35.0265 17.7574 35.0334 17.7705C35.0403 17.7836 35.0438 17.7981 35.0436 17.8127V30.3566C35.0439 30.3696 35.0411 30.3824 35.0355 30.3943C35.0299 30.4061 35.0216 30.4166 35.0111 30.425L24.0224 36.6218C24.0037 36.6279 23.9833 36.6279 23.9646 36.6218L21.1585 35.0454C21.0752 34.9939 20.979 34.9642 20.8796 34.9592C20.7802 34.9543 20.6812 34.9744 20.5927 35.0174L20.5681 35.031C19.7934 35.4651 19.5853 35.5779 18.867 35.8254C18.7499 35.8657 18.4746 35.9621 18.4507 36.2198C18.4269 36.4775 18.6885 36.6607 18.9212 36.7886L22.6718 38.9672C23.0714 39.1936 23.5284 39.3134 23.9942 39.3138H24.0361C24.4903 39.307 24.9347 39.1875 25.3246 38.9672L36.5569 32.6009C36.9615 32.365 37.2952 32.0347 37.5261 31.6417C37.7569 31.2487 37.877 30.8062 37.875 30.3566V17.6302C37.8773 17.1812 37.7572 16.7392 37.5263 16.347C37.2954 15.9547 36.9615 15.6254 36.5569 15.3907Z" fill="url(#paint2_radial_2_70)"/>
<defs>
<linearGradient id="paint0_linear_2_70" x1="-3.5" y1="-1.5" x2="46.5" y2="49.5" gradientUnits="userSpaceOnUse">
<stop stop-color="#9DD758"/>
<stop offset="1" stop-color="#73D200"/>
</linearGradient>
<radialGradient id="paint1_radial_2_70" cx="0" cy="0" r="1" gradientUnits="userSpaceOnUse" gradientTransform="translate(37.6607 8.68625) rotate(132.028) scale(36.7221 32.4848)">
<stop offset="0.54" stop-color="white"/>
<stop offset="1" stop-color="white" stop-opacity="0.71"/>
</radialGradient>
<radialGradient id="paint2_radial_2_70" cx="0" cy="0" r="1" gradientUnits="userSpaceOnUse" gradientTransform="translate(37.6607 8.68625) rotate(132.028) scale(36.7221 32.4848)">
<stop offset="0.54" stop-color="white"/>
<stop offset="1" stop-color="white" stop-opacity="0.71"/>
</radialGradient>
</defs>
</svg>
