<svg width="48" height="48" viewBox="0 0 48 48" fill="none" xmlns="http://www.w3.org/2000/svg">
<rect width="48" height="48" rx="8" fill="url(#paint0_linear_4_76)"/>
<path d="M16.0375 19.1842H10.426L8 31.4681H10.8814L11.4883 28.284H14.2184C16.7957 28.4353 19.6785 26.3121 19.6785 22.6724C19.6785 20.5492 18.4649 19.3355 16.0389 19.1842H16.0375ZM13.9142 26.0094H12.0937L12.8519 21.4602H14.8238C15.8847 21.4602 16.6443 21.9157 16.6443 22.8252C16.493 25.4039 15.2793 25.858 13.9142 26.0094ZM26.1982 19.1842H23.4681L24.075 16H21.1935L18.7676 28.284H21.649L23.0141 21.4602H25.2887C26.351 21.4602 26.351 21.9157 26.1982 22.6739L25.1373 28.2854H28.1701L29.231 22.067C29.5337 20.5506 28.6242 19.3355 26.1982 19.1842ZM36.3589 19.1842H30.7474L28.3215 31.4681H31.2029L31.8097 28.284H34.5398C37.1186 28.4353 40 26.3121 40 22.6724C40 20.5492 38.7849 19.3355 36.3589 19.1842ZM34.2357 26.0094H32.4152L33.1734 21.4602H35.1453C36.2076 21.4602 36.9658 21.9157 36.9658 22.8252C36.8144 25.4039 35.6007 25.858 34.2357 26.0094Z" fill="url(#paint1_radial_4_76)"/>
<defs>
<linearGradient id="paint0_linear_4_76" x1="-1.5" y1="-1" x2="45.5" y2="49.5" gradientUnits="userSpaceOnUse">
<stop stop-color="#8B99CA"/>
<stop offset="1" stop-color="#6281EE"/>
</linearGradient>
<radialGradient id="paint1_radial_4_76" cx="0" cy="0" r="1" gradientUnits="userSpaceOnUse" gradientTransform="translate(39.7528 16) rotate(154.084) scale(31.5206 22.0407)">
<stop offset="0.54" stop-color="white"/>
<stop offset="1" stop-color="white" stop-opacity="0.71"/>
</radialGradient>
</defs>
</svg>
