<svg width="48" height="48" viewBox="0 0 48 48" fill="none" xmlns="http://www.w3.org/2000/svg">
<rect width="48" height="48" rx="8" fill="url(#paint0_linear_2_69)"/>
<path d="M34.7711 18.7656C34.4125 18.646 34.0539 18.5331 33.6953 18.4269C33.7551 18.1812 33.8082 17.9355 33.8613 17.6898C34.6781 13.732 34.1402 10.5511 32.3273 9.50189C30.5809 8.49916 27.732 9.54174 24.85 12.0519C24.5645 12.2976 24.2855 12.5566 24.0199 12.8156C23.8406 12.6429 23.6547 12.4703 23.4688 12.3042C20.4473 9.62142 17.4191 8.49252 15.6063 9.54838C13.8664 10.5578 13.3484 13.5527 14.0789 17.298C14.152 17.6699 14.2316 18.0351 14.3246 18.407C13.8996 18.5265 13.4812 18.6593 13.0895 18.7988C9.54336 20.0273 7 21.9663 7 23.9718C7 26.0437 9.70938 28.1222 13.3949 29.3839C13.6938 29.4835 13.9926 29.5831 14.298 29.6695C14.1984 30.0679 14.1121 30.4597 14.0324 30.8648C13.3352 34.5503 13.8797 37.4722 15.6195 38.4749C17.4125 39.5109 20.4273 38.4484 23.3625 35.8785C23.5949 35.6726 23.8273 35.4601 24.0598 35.2343C24.352 35.5199 24.6574 35.7921 24.9629 36.0577C27.8051 38.5015 30.6141 39.491 32.3473 38.4882C34.1402 37.4523 34.7246 34.3113 33.9676 30.4863C33.9078 30.1941 33.8414 29.8952 33.7684 29.5898C33.9809 29.53 34.1867 29.4636 34.3926 29.3972C38.2242 28.1288 41 26.0769 41 23.9718C41 21.9597 38.3836 20.0074 34.7711 18.7656ZM25.7863 13.1277C28.2566 10.9761 30.5609 10.1328 31.6102 10.737C32.7324 11.3812 33.1641 13.9843 32.4602 17.4042C32.4137 17.63 32.3672 17.8492 32.3074 18.0683C30.8332 17.7363 29.3391 17.4972 27.8383 17.3644C26.975 16.1292 26.032 14.9472 25.0094 13.8382C25.2684 13.5925 25.5207 13.3601 25.7863 13.1277ZM18.1031 27.4183C18.4418 27.996 18.7871 28.5738 19.1523 29.1382C18.1164 29.0253 17.0871 28.8593 16.0711 28.6402C16.3633 27.6839 16.7285 26.6945 17.1535 25.6851C17.459 26.2695 17.7711 26.8472 18.1031 27.4183ZM16.091 19.4296C17.0473 19.2171 18.0633 19.0445 19.1191 18.9117C18.7672 19.4628 18.4219 20.0273 18.0965 20.5984C17.7711 21.1628 17.4523 21.7406 17.1535 22.3249C16.7352 21.3355 16.3832 20.366 16.091 19.4296ZM17.9105 24.005C18.3488 23.0886 18.827 22.1921 19.3316 21.3089C19.8363 20.4257 20.3809 19.5691 20.952 18.7257C21.948 18.6527 22.9641 18.6128 24 18.6128C25.0359 18.6128 26.0586 18.6527 27.048 18.7257C27.6125 19.5624 28.1504 20.4191 28.6617 21.2956C29.173 22.1722 29.6512 23.0687 30.1027 23.9785C29.6578 24.8949 29.1797 25.798 28.6684 26.6878C28.1637 27.571 27.6258 28.4277 27.0613 29.2777C26.0719 29.3507 25.0426 29.3839 24 29.3839C22.9574 29.3839 21.948 29.3507 20.9719 29.291C20.3941 28.4476 19.8496 27.5843 19.3383 26.7011C18.827 25.8179 18.3555 24.9214 17.9105 24.005ZM29.9035 27.405C30.2422 26.8206 30.5609 26.2296 30.873 25.632C31.298 26.5949 31.6699 27.571 31.9953 28.5738C30.966 28.8062 29.9234 28.9855 28.8742 29.105C29.2328 28.5472 29.5715 27.9761 29.9035 27.405ZM30.8598 22.3249C30.5477 21.7406 30.2289 21.1562 29.8969 20.5851C29.5715 20.0206 29.2328 19.4628 28.8809 18.9117C29.95 19.0445 30.9727 19.2238 31.9289 19.4429C31.6234 20.4257 31.2648 21.382 30.8598 22.3249ZM24.0133 14.8542C24.7105 15.6113 25.368 16.4081 25.9789 17.2316C24.6641 17.1718 23.3426 17.1718 22.0277 17.2316C22.6785 16.3749 23.3492 15.5781 24.0133 14.8542ZM16.3102 10.7835C17.4258 10.1328 19.9027 11.0624 22.5125 13.3734C22.6785 13.5195 22.8445 13.6788 23.0172 13.8382C21.9879 14.9472 21.0383 16.1292 20.1684 17.3644C18.6676 17.4972 17.1801 17.7296 15.7059 18.055C15.6195 17.7163 15.5465 17.371 15.4734 17.0257C14.8492 13.8117 15.2609 11.3878 16.3102 10.7835ZM14.6832 28.2882C14.4043 28.2085 14.132 28.1222 13.8598 28.0292C12.4453 27.5843 10.8383 26.8804 9.67617 25.9574C9.00547 25.4925 8.55391 24.7753 8.42773 23.9718C8.42773 22.7566 10.5262 21.2027 13.5543 20.1468C13.9328 20.014 14.318 19.8945 14.7031 19.7816C15.1547 21.2226 15.6992 22.637 16.3301 24.005C15.6926 25.3929 15.1414 26.8273 14.6832 28.2882ZM22.4262 34.796C21.3305 35.7988 20.0621 36.5956 18.6809 37.1402C17.9437 37.4921 17.0938 37.5253 16.3367 37.2265C15.2809 36.6156 14.8426 34.2714 15.4402 31.1171C15.5133 30.7452 15.593 30.3734 15.6859 30.0081C17.1734 30.3269 18.6742 30.546 20.1949 30.6589C21.0715 31.9007 22.0344 33.0894 23.0637 34.205C22.8512 34.4109 22.6387 34.6101 22.4262 34.796ZM24.0531 33.1824C23.3758 32.4519 22.6984 31.6417 22.041 30.7718C22.6785 30.7984 23.3359 30.8117 24 30.8117C24.684 30.8117 25.3547 30.7984 26.0187 30.7652C25.4078 31.6085 24.7504 32.412 24.0531 33.1824ZM32.7324 35.1745C32.6727 35.9847 32.2742 36.7417 31.6367 37.2531C30.5809 37.864 28.3297 37.0671 25.8992 34.982C25.6203 34.7429 25.3414 34.4839 25.0559 34.2183C26.0719 33.096 27.0082 31.9074 27.8582 30.6589C29.3789 30.5327 30.893 30.3003 32.3871 29.9617C32.4535 30.2339 32.5133 30.5062 32.5664 30.7718C32.8918 32.2062 32.9449 33.7003 32.7324 35.1745ZM33.941 28.0359C33.7551 28.0956 33.5691 28.1554 33.3766 28.2085C32.9117 26.7609 32.3406 25.3464 31.6832 23.9718C32.3207 22.6171 32.8586 21.2226 33.3102 19.7949C33.6555 19.8945 33.9875 20.0007 34.3063 20.107C37.4008 21.1695 39.5723 22.7499 39.5723 23.9585C39.5723 25.2601 37.2547 26.9402 33.941 28.0359ZM24 27.0398C25.6801 27.0398 27.0414 25.6785 27.0414 23.9984C27.0414 22.3183 25.6801 20.957 24 20.957C22.3199 20.957 20.9586 22.3183 20.9586 23.9984C20.9586 25.6785 22.3199 27.0398 24 27.0398Z" fill="url(#paint1_radial_2_69)" stroke="url(#paint2_radial_2_69)" stroke-width="0.7"/>
<defs>
<linearGradient id="paint0_linear_2_69" x1="-0.499999" y1="1.5" x2="45.5" y2="49" gradientUnits="userSpaceOnUse">
<stop stop-color="#5ED3F3"/>
<stop offset="1" stop-color="#009CC7"/>
</linearGradient>
<radialGradient id="paint1_radial_2_69" cx="0" cy="0" r="1" gradientUnits="userSpaceOnUse" gradientTransform="translate(40.7373 9.12421) rotate(138.663) scale(40.1184 35.3897)">
<stop offset="0.54" stop-color="white"/>
<stop offset="1" stop-color="white" stop-opacity="0.71"/>
</radialGradient>
<radialGradient id="paint2_radial_2_69" cx="0" cy="0" r="1" gradientUnits="userSpaceOnUse" gradientTransform="translate(40.7373 9.12421) rotate(138.663) scale(40.1184 35.3897)">
<stop offset="0.54" stop-color="white"/>
<stop offset="1" stop-color="white" stop-opacity="0.71"/>
</radialGradient>
</defs>
</svg>
