<svg width="48" height="48" viewBox="0 0 48 48" fill="none" xmlns="http://www.w3.org/2000/svg">
<rect width="48" height="48" rx="8" fill="url(#paint0_linear_4_79)"/>
<path d="M39.9868 28.5031C39.8949 27.7581 39.5174 27.1118 38.8618 26.58C38.8536 26.57 38.8447 26.5608 38.8349 26.5525L38.8018 26.5287L38.7912 26.5212L38.443 26.2712L38.4312 26.2625L38.3868 26.2312C38.3705 26.2217 38.3531 26.2144 38.3349 26.2093C37.2337 25.5537 35.4106 25.0943 32.6212 26.0787C31.9556 24.9587 31.8799 24.0612 32.3256 22.6862C32.4049 22.4468 32.3312 22.2887 32.0937 22.1862C31.6162 21.9831 30.9624 22.0868 30.4987 22.2093C30.2824 22.2656 30.1524 22.3881 30.1112 22.5737C29.8174 23.9487 28.9637 25.205 28.1381 26.4175L28.0893 26.4887C27.5806 25.41 27.6862 24.5743 28.0406 23.5275C28.1112 23.3187 28.0556 23.18 27.8599 23.0762C27.3137 22.7943 26.4943 22.9881 26.1681 23.0843C25.7543 23.205 25.3106 24.3231 24.8149 25.6618C24.6899 25.9987 24.5824 26.2868 24.5181 26.4212C24.3649 26.7337 24.2187 27.09 24.0637 27.4681C23.7137 28.3237 23.3193 29.2868 22.7556 29.8918C22.5506 29.4387 22.8731 28.7243 23.1862 28.0312C23.5568 27.2118 23.9068 26.4375 23.5037 25.9431C23.4399 25.8649 23.3608 25.8006 23.2713 25.7542C23.1818 25.7078 23.0837 25.6802 22.9831 25.6731C22.8518 25.6631 22.72 25.6845 22.5987 25.7356C22.6406 25.3825 22.6424 25.1037 22.5393 24.7668C22.3918 24.2862 22.0087 24.0168 21.4812 24.0312C20.2799 24.0662 19.2637 24.9612 18.6218 25.7062C18.1943 26.2062 17.2468 26.5875 16.4149 26.9218C16.0862 27.0612 15.7737 27.1862 15.5131 27.3112C15.0974 26.96 14.5693 26.6056 14.0131 26.2312C12.4506 25.1825 10.6799 23.9931 10.6187 22.3806C10.5312 19.9987 13.2437 18.3093 15.6112 17.1037C17.4056 16.1912 18.9656 15.5862 20.3806 15.2556C22.3681 14.7912 24.0468 14.885 25.3693 15.5331C26.0931 15.8875 26.4318 16.6581 26.2168 17.4506C25.6543 19.51 23.3237 20.9212 21.3306 21.5562C20.1299 21.9387 19.1081 22.0987 18.2056 22.0462C17.0743 21.9806 16.1506 21.4131 15.7556 21.1712C15.6923 21.128 15.6254 21.0903 15.5556 21.0587L15.5374 21.0543C15.5017 21.0454 15.4641 21.0466 15.429 21.0576C15.3938 21.0686 15.3623 21.0891 15.3381 21.1168C15.2568 21.2137 15.2856 21.3668 15.3149 21.4443C15.6993 22.4487 16.4931 23.0831 17.6737 23.33C18.0601 23.4073 18.4534 23.4448 18.8474 23.4418C21.6106 23.4418 25.1362 21.8487 26.4312 20.5368C27.3143 19.6431 27.9574 18.7243 28.2237 17.14C28.5018 15.4806 27.3768 14.3275 26.2306 13.7962C23.4449 12.5106 20.2812 13.0187 18.1174 13.6712C15.5862 14.4343 12.9674 15.8218 10.9337 17.4793C8.42619 19.5212 7.51994 21.4168 8.23869 23.12C8.97681 24.8656 10.7768 25.9575 12.5174 27.0137C13.0799 27.3543 13.6149 27.6787 14.0968 28.0137C13.9518 28.0843 13.8037 28.1562 13.6531 28.2281C12.1918 28.9362 10.5343 29.7331 9.61494 31.0499C8.94744 32.0093 8.82244 32.9643 9.24369 33.8887C9.46869 34.3806 9.86869 34.7143 10.4243 34.8806C10.7133 34.9625 11.0127 35.0022 11.3131 34.9987C12.3949 34.9987 13.5856 34.5612 14.2337 34.1568C15.3787 33.4381 16.1206 32.4731 16.4393 31.2887C16.7231 30.235 16.6549 29.1881 16.2424 28.2537L17.6456 27.5462C16.9687 29.7962 17.4874 31.1399 18.0574 31.8812C18.2674 32.1543 18.6462 32.3187 19.0693 32.3262C19.4924 32.3337 19.8818 32.1743 20.1018 31.9031C20.5181 31.3874 20.8256 30.7843 21.1087 30.1812C21.0937 30.5749 21.1124 30.9737 21.2468 31.3118C21.3674 31.6162 21.5662 31.8181 21.8224 31.8956C22.0949 31.9787 22.4143 31.9087 22.7218 31.6987C24.1074 30.7506 25.0549 28.475 25.8162 26.6456C25.9243 26.3856 26.0281 26.1356 26.1287 25.9018C26.317 26.5758 26.579 27.2271 26.9099 27.8437C26.9837 27.9775 26.9774 28.0362 26.8774 28.1462C26.7268 28.3112 26.5168 28.5106 26.2943 28.7218C25.6206 29.3612 24.7818 30.1593 24.6693 30.8612C24.6256 31.1424 24.8193 31.3987 25.1199 31.4568C26.0243 31.6368 27.1137 31.3737 28.0349 30.7537C28.8724 30.1912 29.1874 29.4068 28.9724 28.4293C28.7643 27.4881 29.2393 26.3193 30.3843 24.9531C30.5718 25.7362 30.8218 26.3693 31.1668 26.9237L31.1574 26.9312C30.3237 27.6593 29.1812 28.6562 29.3587 29.8656C29.3736 29.9806 29.4123 30.0912 29.4723 30.1905C29.5324 30.2897 29.6124 30.3753 29.7074 30.4418C29.8089 30.5104 29.9235 30.5572 30.044 30.5793C30.1644 30.6015 30.2882 30.5985 30.4074 30.5706C31.4993 30.3412 32.3212 29.8793 32.9187 29.1599C33.5162 28.4406 33.2981 27.6431 33.0968 27.0243C34.6593 26.6006 36.0506 26.6112 37.3531 27.0556C38.0843 27.3056 38.6087 27.7162 38.9112 28.2831C39.2918 28.9962 39.0862 29.6543 38.3305 30.1362C38.0987 30.2843 37.9868 30.375 37.9799 30.4893C37.9784 30.5159 37.9833 30.5424 37.9942 30.5666C38.005 30.5909 38.0216 30.6122 38.0424 30.6287C38.1299 30.7006 38.3999 30.8256 39.0105 30.4412C39.573 30.0881 39.903 29.6074 39.9874 29.0037C40.0044 28.8372 40.0042 28.6695 39.9868 28.5031ZM15.0037 30.0693L14.9974 30.1493C14.8999 31.0643 14.4349 31.8618 13.6131 32.5243C13.0968 32.9406 12.5362 33.1962 12.0349 33.2449C11.6849 33.2787 11.4306 33.2312 11.2793 33.1031C11.1662 33.0074 11.1056 32.8643 11.0918 32.6656C10.9893 31.0731 13.4868 29.4906 14.8924 28.97C14.9928 29.3272 15.0304 29.6992 15.0037 30.0693ZM21.4006 25.5781C21.1693 26.8962 20.4949 29.3843 19.4349 30.3499C19.3843 30.3962 19.3418 30.4124 19.3224 30.4081C19.3031 30.4037 19.2881 30.3806 19.2724 30.3456C18.9187 29.5256 19.0493 28.1406 19.5849 27.0525C19.9968 26.2137 20.5849 25.6581 21.2424 25.49C21.2697 25.4824 21.2979 25.4784 21.3262 25.4781C21.3483 25.4765 21.3703 25.4825 21.3887 25.495C21.3964 25.5072 21.4015 25.5209 21.4035 25.5352C21.4056 25.5496 21.4046 25.5642 21.4006 25.5781ZM26.6187 30.3831C26.4193 30.5912 26.1462 30.5631 26.2106 30.4868L27.2256 29.4093C27.1437 29.78 26.9018 30.0868 26.6187 30.3831ZM30.8293 29.4512C30.7328 29.4988 30.6283 29.5282 30.5212 29.5381C30.4924 28.9712 31.0418 28.3331 31.5837 27.9075C31.7293 28.4987 31.4312 29.1237 30.8293 29.4512Z" fill="url(#paint1_radial_4_79)"/>
<defs>
<linearGradient id="paint0_linear_4_79" x1="-1.5" y1="1.5" x2="48" y2="50.5" gradientUnits="userSpaceOnUse">
<stop stop-color="#C76395"/>
<stop offset="1" stop-color="#FF0080"/>
</linearGradient>
<radialGradient id="paint1_radial_4_79" cx="0" cy="0" r="1" gradientUnits="userSpaceOnUse" gradientTransform="translate(39.7528 13) rotate(145.352) scale(34.4621 28.6709)">
<stop offset="0.54" stop-color="white"/>
<stop offset="1" stop-color="white" stop-opacity="0.71"/>
</radialGradient>
</defs>
</svg>
