<svg width="48" height="48" viewBox="0 0 48 48" fill="none" xmlns="http://www.w3.org/2000/svg">
<rect width="48" height="48" rx="8" fill="url(#paint0_linear_2_72)"/>
<path d="M30.321 16.143L30.2085 16.7295C30.0345 17.841 30.0975 18.159 30.5745 18.5715L31.035 18.9525L30.558 21.0795C30.273 22.3485 29.9235 23.412 29.7015 23.7615C29.511 24.063 29.289 24.507 29.241 24.7455C29.1615 25.0305 28.8915 25.317 28.479 25.5705C28.1145 25.7775 27.399 26.3325 26.892 26.778C26.487 27.1425 26.208 27.366 26.0565 27.462L25.5615 27.8535C25.4025 28.1085 25.3125 28.314 25.278 28.47C25.2435 28.6305 25.263 28.737 25.314 28.815C25.3635 28.89 25.449 28.9425 25.566 28.9755C25.7045 29.008 25.8471 29.0196 25.989 29.01C26.3101 28.9881 26.6279 28.9317 26.937 28.842C27.042 28.8135 27.1245 28.7865 27.1965 28.7625C27.3075 28.626 27.564 28.368 28.0185 27.9195C29.2245 26.73 29.685 26.079 29.2095 26.2545C29.034 26.3175 29.1135 26.1585 29.415 25.8405C30.051 25.221 30.4155 24.285 31.1775 21.3495C31.7805 19.032 31.7805 18.999 32.2245 18.999C32.433 18.999 33.0225 19.035 33.0225 19.035V16.143H31.6695H30.321ZM36.0795 20.8905C35.9835 20.8905 35.8245 21.0345 35.73 21.1935C35.556 21.4785 35.7615 21.6525 38.3805 23.2875C39.936 24.273 41.19 25.113 41.1585 25.1775C41.127 25.224 39.8565 26.0505 38.334 27.003C35.571 28.716 35.556 28.7325 35.8095 29.082C36.1275 29.4945 35.8095 29.637 39.396 27.399L42 25.7325V24.4785L39.0945 22.6845C37.524 21.7005 36.159 20.907 36.0795 20.8905ZM11.952 21.066C11.8725 21.066 10.5075 21.876 8.937 22.8435L6 24.6375V25.8915L8.9205 27.717C10.5405 28.716 11.9055 29.5425 11.9685 29.5425C12.0315 29.5425 12.159 29.3985 12.2865 29.2245C12.477 28.923 12.3165 28.7955 9.6345 27.0975C7.08 25.494 6.81 25.272 7.065 25.098C7.224 24.987 8.43 24.24 9.732 23.4315C12.7005 21.606 12.5415 21.732 12.303 21.351C12.2085 21.1935 12.048 21.051 11.9535 21.066H11.952ZM24.978 21.1005C24.54 21.0975 23.598 21.765 20.778 24.0675C20.6565 24.357 20.646 24.5565 20.7015 24.6855C20.7375 24.774 20.8035 24.8355 20.895 24.8805C20.985 24.9255 21.102 24.9525 21.231 24.963C21.4875 24.9855 21.7905 24.945 22.035 24.897L22.2 24.8595C22.2565 24.7838 22.3306 24.723 22.416 24.6825C22.59 24.5865 23.3205 23.9205 24.051 23.2065C25.3365 21.9045 25.638 21.3165 25.1145 21.126C25.0716 21.1089 25.0242 21.1003 24.978 21.1005ZM28.272 22.005C27.8865 22.0155 27.192 22.4625 26.0025 23.412C25.4055 23.8965 25.0275 24.1575 24.825 24.2115L24.039 24.8325C23.7435 25.3725 23.7 25.707 23.778 25.8915C23.7975 25.937 23.8259 25.9782 23.8614 26.0127C23.8969 26.0472 23.9389 26.0743 23.985 26.0925C24.0996 26.1378 24.2218 26.1607 24.345 26.16C24.6394 26.1569 24.9321 26.114 25.215 26.0325C25.3625 25.9929 25.5081 25.9469 25.6515 25.8945L25.695 25.8765L25.7745 25.8345C25.9245 25.641 26.2695 25.2765 26.7015 24.8565C28.0665 23.5395 28.764 22.6035 28.6215 22.254C28.557 22.0845 28.446 21.999 28.272 22.005ZM24.636 23.625C24.525 23.637 24.276 23.829 23.8275 24.222C23.1795 24.795 22.473 25.125 22.2285 24.978C22.1717 24.9908 22.1147 25.0028 22.0575 25.014C21.8085 25.0635 21.498 25.104 21.2205 25.0815C21.0898 25.0736 20.9616 25.0415 20.8425 24.987C20.7302 24.9356 20.6405 24.8449 20.5905 24.732C20.535 24.597 20.535 24.429 20.598 24.2145L19.623 25.0155L17.4165 26.841V29.8005L24.6465 24.105C24.6451 24.0426 24.6532 23.9804 24.6705 23.9205C24.726 23.7195 24.723 23.6175 24.636 23.6265V23.625ZM27.747 24.5835C27.6375 24.5835 27.4545 24.738 27.162 25.0485C26.7645 25.473 26.139 25.884 25.8075 25.968L25.7565 25.995C25.7021 26.0175 25.6471 26.0385 25.5915 26.058C25.5015 26.088 25.3845 26.124 25.2495 26.16C24.9795 26.2335 24.6435 26.301 24.3435 26.2935C24.2021 26.2933 24.062 26.2658 23.931 26.2125C23.8075 26.1616 23.7086 26.0648 23.655 25.9425C23.568 25.734 23.6025 25.4415 23.793 25.026L17.415 30.0495V31.857H20.217L26.16 27.189C26.3145 27.018 26.547 26.784 26.8605 26.4915C27.7005 25.713 27.891 25.4445 27.891 25.047C27.891 24.738 27.8565 24.582 27.747 24.582V24.5835ZM29.1615 27.5085L28.653 28.0155C28.368 28.2855 27.8595 28.6185 27.5115 28.761L27.4425 28.791L27.438 28.7985L27.423 28.8135C27.4095 28.824 27.4035 28.8255 27.393 28.83C27.2541 28.8826 27.1129 28.9291 26.97 28.9695C26.6522 29.062 26.3253 29.1199 25.995 29.142C25.8388 29.152 25.6821 29.1384 25.53 29.1015C25.398 29.0725 25.2815 28.9955 25.203 28.8855C25.131 28.7745 25.11 28.626 25.1505 28.443C25.1827 28.3127 25.2306 28.1868 25.293 28.068L20.4975 31.857H26.8755L27.6375 30.984C28.6845 29.763 29.1615 28.89 29.1615 28.143V27.5085Z" fill="url(#paint1_radial_2_72)"/>
<defs>
<linearGradient id="paint0_linear_2_72" x1="-6.92904e-07" y1="1.5" x2="46.5" y2="48" gradientUnits="userSpaceOnUse">
<stop stop-color="#DB7093"/>
<stop offset="1" stop-color="#FF0053"/>
</linearGradient>
<radialGradient id="paint1_radial_2_72" cx="0" cy="0" r="1" gradientUnits="userSpaceOnUse" gradientTransform="translate(41.7219 16.143) rotate(156.308) scale(34.83 22.7965)">
<stop offset="0.54" stop-color="white"/>
<stop offset="1" stop-color="white" stop-opacity="0.71"/>
</radialGradient>
</defs>
</svg>
