<svg width="48" height="48" viewBox="0 0 48 48" fill="none" xmlns="http://www.w3.org/2000/svg">
<rect width="48" height="48" rx="8" fill="url(#paint0_linear_2_68)"/>
<path d="M9.5 8C8.66933 8 8 8.66933 8 9.5V38.5C8 39.3307 8.66933 40 9.5 40H38.5C39.3307 40 40 39.3307 40 38.5V9.5C40 8.66933 39.3307 8 38.5 8H9.5ZM32.6507 21C33.4667 21 34.1893 21.0493 34.82 21.148C35.4148 21.2371 35.9985 21.3891 36.5613 21.6013V24.8787C36.2912 24.6918 36.0042 24.5307 35.704 24.3973C35.3944 24.258 35.0749 24.1422 34.748 24.0507C34.1288 23.8781 33.4894 23.7885 32.8467 23.784C32.4467 23.784 32.0827 23.8213 31.7547 23.8987C31.4623 23.9612 31.1819 24.0701 30.924 24.2213C30.6973 24.36 30.524 24.5267 30.4 24.72C30.2753 24.9149 30.2104 25.142 30.2133 25.3733C30.2133 25.6347 30.284 25.8707 30.4213 26.0787C30.56 26.2867 30.7573 26.484 31.012 26.6707C31.2667 26.8573 31.576 27.0387 31.94 27.2173C32.304 27.3973 32.716 27.5827 33.1747 27.772C33.8013 28.0347 34.364 28.3147 34.8627 28.6093C35.3613 28.9053 35.7893 29.24 36.1467 29.6133C36.504 29.9853 36.776 30.4107 36.9653 30.8893C37.1547 31.368 37.2507 31.924 37.2507 32.56C37.2507 33.436 37.084 34.1733 36.7533 34.768C36.4303 35.3545 35.9666 35.8516 35.404 36.2147C34.7976 36.5992 34.1255 36.8686 33.4213 37.0093C32.6667 37.1693 31.8707 37.2493 31.0347 37.2493C30.2119 37.2529 29.3905 37.1797 28.5813 37.0307C27.8812 36.9096 27.2023 36.6882 26.5653 36.3733V32.8667C27.7704 33.8922 29.299 34.4589 30.8813 34.4667C31.3253 34.4667 31.7133 34.4267 32.044 34.3467C32.376 34.2667 32.652 34.1547 32.8747 34.0133C33.096 33.8693 33.2613 33.7013 33.372 33.5067C33.4943 33.28 33.55 33.0234 33.5325 32.7664C33.515 32.5095 33.4252 32.2627 33.2733 32.0547C33.0752 31.7925 32.8329 31.5669 32.5573 31.388C32.2155 31.1614 31.8557 30.9634 31.4813 30.796C31.0377 30.5934 30.59 30.3996 30.1387 30.2147C28.9147 29.704 28.0027 29.0787 27.4013 28.3413C26.8013 27.604 26.5 26.712 26.5 25.668C26.5 24.8493 26.664 24.1467 26.992 23.5587C27.32 22.9707 27.7653 22.4867 28.3307 22.1067C28.9286 21.7122 29.5925 21.4282 30.2907 21.268C31.064 21.0857 31.8562 20.9957 32.6507 21ZM12.5 21.2507H25.2507V24.1387H20.6747V37H17.052V24.1387H12.5V21.2507Z" fill="url(#paint1_radial_2_68)"/>
<defs>
<linearGradient id="paint0_linear_2_68" x1="-5" y1="5.7742e-07" x2="46.5" y2="50" gradientUnits="userSpaceOnUse">
<stop stop-color="#6AB5E8"/>
<stop offset="1" stop-color="#1283D0"/>
</linearGradient>
<radialGradient id="paint1_radial_2_68" cx="0" cy="0" r="1" gradientUnits="userSpaceOnUse" gradientTransform="translate(39.7528 8) rotate(134.85) scale(40.1997 35.7528)">
<stop offset="0.54" stop-color="white"/>
<stop offset="1" stop-color="white" stop-opacity="0.71"/>
</radialGradient>
</defs>
</svg>
